<?xml version="1.0" encoding="UTF-8" standalone="no"?>
<!-- Created with Inkscape (http://www.inkscape.org/) -->

<svg
   xmlns:dc="http://purl.org/dc/elements/1.1/"
   xmlns:cc="http://creativecommons.org/ns#"
   xmlns:rdf="http://www.w3.org/1999/02/22-rdf-syntax-ns#"
   xmlns:svg="http://www.w3.org/2000/svg"
   xmlns="http://www.w3.org/2000/svg"
   xmlns:sodipodi="http://sodipodi.sourceforge.net/DTD/sodipodi-0.dtd"
   xmlns:inkscape="http://www.inkscape.org/namespaces/inkscape"
   width="210mm"
   height="297mm"
   id="svg2"
   version="1.1"
   inkscape:version="0.48.3.1 r9886"
   sodipodi:docname="barbarianlogo.svg"
   inkscape:export-filename="C:\Dokumente und Einstellungen\GAS\Eigene Dateien\Downloads\barbarianlogo.png"
   inkscape:export-xdpi="43.479786"
   inkscape:export-ydpi="43.479786">
  <defs
     id="defs4" />
  <sodipodi:namedview
     id="base"
     pagecolor="#ffffff"
     bordercolor="#666666"
     borderopacity="1.0"
     inkscape:pageopacity="0.0"
     inkscape:pageshadow="2"
     inkscape:zoom="0.53350718"
     inkscape:cx="306.13127"
     inkscape:cy="619.08396"
     inkscape:document-units="px"
     inkscape:current-layer="layer1"
     showgrid="false"
     inkscape:snap-bbox="false"
     inkscape:window-width="1280"
     inkscape:window-height="1005"
     inkscape:window-x="-4"
     inkscape:window-y="-4"
     inkscape:window-maximized="1" />
  <metadata
     id="metadata7">
    <rdf:RDF>
      <cc:Work
         rdf:about="">
        <dc:format>image/svg+xml</dc:format>
        <dc:type
           rdf:resource="http://purl.org/dc/dcmitype/StillImage" />
        <dc:title />
      </cc:Work>
    </rdf:RDF>
  </metadata>
  <g
     inkscape:label="Ebene 1"
     inkscape:groupmode="layer"
     id="layer1">
    <path
       style="fill:#616161;fill-opacity:1;stroke:#616161;stroke-width:4.39878464;stroke-linecap:butt;stroke-linejoin:miter;stroke-miterlimit:4;stroke-opacity:1;stroke-dasharray:none"
       d="m 456.54869,631.3672 c 0,0 8.45406,-29.30206 18.14206,-60.0829 7.80801,-16.7959 19.31098,-58.62571 25.12806,-69.74823 21.87442,-40.9347 46.96838,-115.21435 47.14947,-108.07265 19.89022,-44.663 39.46576,-81.1428 37.69209,-122.53364 -0.26156,-14.01171 1.19641,-20.93638 -6.29576,-47.14948 -6.88445,-18.1065 -4.1129,-14.27314 -16.33049,-28.89451 -7.57726,-15.39067 -33.83989,-20.12428 -48.19419,-20.15194 -0.95695,-0.002 -1.85225,0.0166 -2.69425,0.055 -15.08746,1.87927 -41.50599,12.84256 -53.25279,25.28909 -11.60395,12.9395 -20.3261,30.463 -24.68818,43.19449 -13.01477,56.10678 -13.95909,93.37136 -14.43351,143.89524 l -3.76646,61.58299 -1.89698,40.22139 -8.16524,72.27753 -10.06222,54.6549 -13.19636,72.90986 c -7.27544,4.21724 -7.12151,12.14526 -4.39878,21.36159 -7.49685,11.92403 -9.66468,27.04546 -8.79757,43.98785 -4.0721,7.89821 -11.5676,13.51153 -6.26827,27.65736 -7.37575,20.46561 -11.39222,36.7927 -3.79395,38.95674 0.0626,8.22316 8.81209,7.65641 20.48768,9.24358 6.22402,0.2959 10.67245,-0.46477 13.99306,-2.11544 3.32062,-1.65067 5.51342,-4.19134 7.22621,-7.45542 3.42559,-6.52817 10.94151,-25.1105 10.94151,-25.1105 7.83637,-2.0897 11.17081,-13.22464 8.0349,-24.42949 6.29466,-13.61746 8.61848,-29.62585 11.9243,-47.03148 6.50465,-8.78331 10.25513,-6.15744 7.72455,-24.63083 -1.34451,-13.68801 17.79111,-67.88109 17.79111,-67.88109 z"
       id="path3030"
       inkscape:connector-curvature="0"
       sodipodi:nodetypes="cccccccsccccccccccccccsscccccc" />
    <path
       sodipodi:nodetypes="cccc"
       inkscape:connector-curvature="0"
       id="path4162"
       d="m 433.87003,220.36633 c -41.18814,-8.85156 -103.6358,-12.20117 -136.86506,-21.28217 29.98829,18.08692 91.96336,49.90134 120.98756,70.73808 1.33509,-9.58439 6.72868,-39.40319 15.8775,-49.45591 z"
       style="fill:#616161;fill-opacity:1;stroke:#616161;stroke-width:0.87975693px;stroke-linecap:butt;stroke-linejoin:miter;stroke-opacity:1" />
    <path
       style="fill:#424242;fill-opacity:1;stroke:#424242;stroke-width:1;stroke-linecap:butt;stroke-linejoin:miter;stroke-miterlimit:4;stroke-opacity:1;stroke-dasharray:none"
       d="M 579.24766,200.38566 728.96891,167.2943 592.72842,239.75555 c -1.23695,-5.09312 -7.92414,-34.04586 -13.48076,-39.36989 z"
       id="path3061-7"
       inkscape:connector-curvature="0"
       sodipodi:nodetypes="cccc" />
    <path
       style="fill:#424242;fill-opacity:1;stroke:#616161;stroke-width:0.63920981px;stroke-linecap:butt;stroke-linejoin:miter;stroke-opacity:1"
       d="m 566.23817,373.4749 101.34116,58.40022 -86.54311,-90.77922 c -2.072,8.15486 -11.79418,28.52605 -14.79805,32.379 z"
       id="path3061-7-4"
       inkscape:connector-curvature="0"
       sodipodi:nodetypes="cccc" />
    <path
       style="fill:#616161;fill-opacity:1;stroke:#616161;stroke-width:0.8120966px;stroke-linecap:butt;stroke-linejoin:miter;stroke-opacity:1"
       d="M 554.74351,176.40866 569.78046,20.50217 514.78038,165.59254 c 5.77807,-0.69651 36.94682,3.87829 39.96313,10.81612 z"
       id="path3061-7-0"
       inkscape:connector-curvature="0"
       sodipodi:nodetypes="cccc" />
    <path
       style="fill:#424242;fill-opacity:1;stroke:#424242;stroke-width:0.8516047;stroke-linecap:butt;stroke-linejoin:miter;stroke-miterlimit:4;stroke-opacity:1;stroke-dasharray:none"
       d="m 593.3303,267.6718 118.30239,39.893 -120.68146,-4.60987 c 1.1176,-4.53769 3.46017,-27.83918 2.37907,-35.28313 z"
       id="path3061-7-0-9-4"
       inkscape:connector-curvature="0"
       sodipodi:nodetypes="cccc" />
    <path
       style="fill:#616161;fill-opacity:1;stroke:#616161;stroke-width:0.87975693px;stroke-linecap:butt;stroke-linejoin:miter;stroke-opacity:1"
       d="m 448.92403,197.40166 -46.55156,-98.84853 80.94033,74.50392 c -13.22624,2.13346 -23.58345,11.63046 -34.38877,24.34461 z"
       id="path3061-7-8"
       inkscape:connector-curvature="0"
       sodipodi:nodetypes="cccc" />
    <path
       style="fill:#616161;fill-opacity:1;stroke:#616161;stroke-width:0.8517468px;stroke-linecap:butt;stroke-linejoin:miter;stroke-opacity:1"
       d="m 414.13812,288.90721 -143.80046,25.57971 140.03168,13.28586 c 0.0598,-4.18186 1.6427,-30.24585 3.76878,-38.86557 z"
       id="path3061-7-0-9-5"
       inkscape:connector-curvature="0"
       sodipodi:nodetypes="cccc" />
    <path
       style="fill:#424242;fill-opacity:1;stroke:#424242;stroke-width:0.88;stroke-linecap:butt;stroke-linejoin:miter;stroke-miterlimit:4;stroke-opacity:1;stroke-dasharray:none"
       d="m 468.17283,179.12318 -65.77648,-80.57868 81.13739,74.66942 c -2.93272,0.20125 -13.4563,4.62069 -15.36091,5.90926 z"
       id="path3061-7-8-2"
       inkscape:connector-curvature="0"
       sodipodi:nodetypes="cccc" />
    <path
       style="fill:#434343;fill-opacity:1;stroke:#424242;stroke-width:0.87975693;stroke-linecap:butt;stroke-linejoin:miter;stroke-miterlimit:4;stroke-opacity:1;stroke-dasharray:none"
       d="m 458.30784,631.47137 c 0,0 8.45406,-29.30206 18.14206,-60.0829 7.80801,-16.7959 19.31098,-58.62571 25.12806,-69.74823 21.87443,-40.9347 41.08082,-92.4417 45.48318,-101.62965 19.89022,-44.663 41.13205,-87.5858 39.35838,-128.97664 -0.26156,-14.0117 1.19642,-20.93638 -6.29576,-47.14947 -6.18784,-18.10651 -3.35666,-14.98326 -15.32654,-30.4975 -12.39869,-15.21208 -34.51057,-20.29868 -48.86487,-20.32634 -0.95696,-0.002 -2.96311,-0.0944 -3.80512,-0.0561 4.60043,144.40378 -20.263,262.94099 -59.50045,392.60385 -11.5427,56.38888 -28.6835,115.11484 -44.6624,161.13968 -5.85007,28.81819 -23.56707,71.58782 -49.53817,99.49189 2.01167,5.21615 12.25855,5.58636 23.17436,8.05994 6.22402,0.2959 13.98211,-3.04035 14.48246,-5.85837 3.48248,0.49546 5.67148,-2.46702 7.38427,-5.73111 3.42559,-6.52817 8.92133,-25.48879 8.92133,-25.48879 7.83638,-2.0897 11.61516,-15.00202 8.47925,-26.20688 6.29466,-13.61746 8.61848,-29.62585 11.9243,-47.03147 6.50465,-8.78331 10.25514,-6.15744 7.72455,-24.63084 -1.3445,-13.688 17.79111,-67.88108 17.79111,-67.88107 z"
       id="path3030-1"
       inkscape:connector-curvature="0"
       sodipodi:nodetypes="cccccccsccccccsccccc" />
    <text
       transform="scale(0.98040811,1.0199834)"
       sodipodi:linespacing="125%"
       id="text3850"
       y="508.28464"
       x="28.489449"
       style="font-size:24.42017364999999900px;font-style:normal;font-weight:normal;line-height:125%;letter-spacing:0px;word-spacing:0px;fill:#5d5d5d;fill-opacity:1;stroke:#4a4a4a;stroke-width:0;stroke-linejoin:miter;stroke-miterlimit:4;stroke-opacity:1;stroke-dasharray:none;font-family:Sans"
       xml:space="preserve"><tspan
         dx="0"
         style="font-size:90.00000011999999600px;font-style:normal;font-variant:normal;font-weight:bold;font-stretch:normal;text-align:start;line-height:125%;letter-spacing:-2.94000019000000010px;word-spacing:0px;writing-mode:lr-tb;text-anchor:start;fill:#5d5d5d;fill-opacity:1;stroke:#4a4a4a;font-family:Microsoft Sans Serif;-inkscape-font-specification:Microsoft Sans Serif Bold;stroke-opacity:1"
         y="508.28464"
         x="28.489449"
         id="tspan3852"
         sodipodi:role="line">Barbarian</tspan></text>
    <path
       style="font-size:24.42017365px;font-style:normal;font-weight:normal;line-height:125%;letter-spacing:0px;word-spacing:0px;fill:#424242;fill-opacity:1;stroke:#424242;stroke-width:0;stroke-linejoin:miter;stroke-miterlimit:4;stroke-opacity:1;stroke-dasharray:none;font-family:Sans"
       d="M 34.875 452.21875 L 34.875 496.15625 C 38.031609 495.61259 41.407464 495.10366 44.9375 494.59375 L 44.9375 488.65625 L 57.84375 488.65625 C 63.572136 488.65628 67.490822 489.44328 69.5625 491.0625 C 69.762719 491.219 69.944132 491.38799 70.125 491.5625 C 73.659463 491.20682 77.287122 490.85813 81.03125 490.53125 C 80.692422 489.8964 80.299095 489.26026 79.875 488.65625 C 77.765613 485.65218 74.843836 483.80349 71.09375 483.09375 C 77.03575 480.63597 79.999948 476.13292 80 469.5625 C 79.999948 464.18934 78.011116 459.93476 74.03125 456.84375 C 70.051292 453.75286 64.652834 452.21882 57.84375 452.21875 L 34.875 452.21875 z M 163.1875 452.21875 L 163.1875 486.28125 C 166.4667 486.20668 169.7596 486.14966 173.09375 486.09375 L 173.09375 484.5625 C 176.43456 479.65623 180.13828 477.21879 184.21875 477.21875 C 187.29027 477.21879 189.71825 478.60812 191.5 481.375 C 192.28822 482.5991 192.87298 484.10462 193.3125 485.875 C 196.27539 485.86003 199.224 485.84375 202.21875 485.84375 C 202.66922 485.84375 203.11272 485.84341 203.5625 485.84375 C 202.76658 481.9086 201.32611 478.54395 199.25 475.75 C 195.8831 471.21914 191.11468 468.9688 184.9375 468.96875 C 179.6381 468.9688 175.69495 471.16935 173.09375 475.59375 L 173.09375 452.21875 L 163.1875 452.21875 z M 282.78125 452.21875 L 282.78125 462.96875 L 292.65625 462.96875 L 292.65625 452.21875 L 282.78125 452.21875 z M 44.9375 461.65625 L 57 461.65625 C 61.924147 461.65631 65.336465 462.3698 67.21875 463.8125 C 69.100956 465.25531 70.031208 467.43824 70.03125 470.3125 C 70.031208 473.5361 69.07795 475.80038 67.15625 477.15625 C 65.234472 478.5122 62.120168 479.21879 57.78125 479.21875 L 44.9375 479.21875 L 44.9375 461.65625 z M 109.0625 468.96875 C 96.156933 468.9688 89.374718 474.34873 88.75 485.125 L 98.5625 485.125 C 98.788678 479.85081 102.12643 477.21879 108.625 477.21875 C 111.79706 477.21879 114.07044 477.65256 115.4375 478.53125 C 116.8045 479.41002 117.66084 480.53263 117.96875 481.90625 C 118.27659 483.27994 118.40622 485.28734 118.40625 487.9375 L 115.46875 487.9375 C 111.52709 487.93751 108.04754 488.23822 104.9375 488.75 C 112.43131 488.27056 120.21134 487.83641 128.25 487.46875 L 128.25 487.40625 C 128.24996 480.1729 126.54388 475.27697 123.125 472.75 C 119.70604 470.22312 115.02247 468.9688 109.0625 468.96875 z M 157.03125 468.96875 C 152.26143 468.9688 148.68212 471.49239 146.3125 476.53125 L 146.3125 470.03125 L 136.4375 470.03125 L 136.4375 487.125 C 139.69014 486.99492 142.98679 486.89231 146.3125 486.78125 L 146.3125 484.84375 C 148.92806 480.8545 152.10543 478.84379 155.8125 478.84375 C 157.79974 478.84379 159.71058 479.02392 161.59375 479.375 L 161.59375 469.46875 C 159.72494 469.12889 158.21604 468.9688 157.03125 468.96875 z M 228.625 468.96875 C 215.71943 468.9688 208.96847 474.34873 208.34375 485.125 L 218.125 485.125 C 218.35118 479.85081 221.72018 477.21879 228.21875 477.21875 C 231.39081 477.21879 233.66419 477.65256 235.03125 478.53125 C 236.39825 479.41002 237.22334 480.53263 237.53125 481.90625 C 237.76735 482.95979 237.91371 484.41439 237.96875 486.21875 C 241.28236 486.28744 244.55717 486.38155 247.8125 486.46875 C 247.66666 479.759 245.95376 475.16417 242.6875 472.75 C 239.26854 470.22312 234.58497 468.9688 228.625 468.96875 z M 276.59375 468.96875 C 271.82393 468.9688 268.27587 471.49239 265.90625 476.53125 L 265.90625 470.03125 L 256 470.03125 L 256 486.71875 C 259.3368 486.8255 262.64131 486.9054 265.90625 487.03125 L 265.90625 484.84375 C 268.52181 480.8545 271.66793 478.84379 275.375 478.84375 C 277.36224 478.84379 279.30433 479.02392 281.1875 479.375 L 281.1875 469.46875 C 279.31869 469.12889 277.77854 468.9688 276.59375 468.96875 z M 319.25 468.96875 C 306.34443 468.9688 299.59347 474.34873 298.96875 485.125 L 308.75 485.125 C 308.97618 479.85081 312.34518 477.21879 318.84375 477.21875 C 322.01581 477.21879 324.25794 477.65256 325.625 478.53125 C 326.992 479.41002 327.84834 480.53263 328.15625 481.90625 C 328.46409 483.27994 328.62497 485.28734 328.625 487.9375 L 325.65625 487.9375 C 319.94889 487.93751 315.1513 488.48951 311.1875 489.5625 C 320.86829 490.28464 329.98905 491.10208 338.4375 492 L 338.4375 487.40625 C 338.43746 480.1729 336.73138 475.27697 333.3125 472.75 C 329.89354 470.22312 325.20997 468.9688 319.25 468.96875 z M 368.9375 468.96875 C 363.68298 468.9688 359.53922 471.27964 356.5 475.9375 L 356.5 470.03125 L 346.625 470.03125 L 346.625 492.90625 C 350.03851 493.31238 353.34722 493.75353 356.5 494.1875 L 356.5 484.4375 C 360.23037 479.85807 363.97039 477.56254 367.71875 477.5625 C 370.37738 477.56254 372.28137 478.30678 373.4375 479.78125 C 374.59356 481.25579 375.18747 483.80546 375.1875 487.40625 L 375.1875 497.21875 C 378.80893 497.91817 382.07762 498.63051 385.0625 499.375 L 385.0625 487.03125 C 385.06246 474.97751 379.67982 468.9688 368.9375 468.96875 z M 282.78125 470.03125 L 282.78125 487.8125 C 286.12907 487.98175 289.40617 488.15439 292.65625 488.34375 L 292.65625 470.03125 L 282.78125 470.03125 z "
       id="text4122" />
    <path
       style="fill:#424242;fill-opacity:1;stroke:#424242;stroke-width:0.8120966px;stroke-linecap:butt;stroke-linejoin:miter;stroke-opacity:1"
       d="M 554.64849,176.68194 569.68544,20.775446 531.35288,167.38105 c 5.77807,1.9316 20.2793,3.67919 23.29561,9.30089 z"
       id="path3061-7-0-5"
       inkscape:connector-curvature="0"
       sodipodi:nodetypes="cccc" />
    <path
       sodipodi:nodetypes="cccc"
       inkscape:connector-curvature="0"
       id="path4164"
       d="M 579.24766,200.38566 728.96891,167.2943 582.42031,205.455 c -0.29945,-0.67347 -2.17966,-3.92773 -3.17265,-5.06934 z"
       style="fill:#616161;fill-opacity:1;stroke:#616161;stroke-width:1;stroke-linecap:butt;stroke-linejoin:miter;stroke-miterlimit:4;stroke-opacity:1;stroke-dasharray:none" />
    <path
       style="fill:#424242;fill-opacity:1;stroke:#424242;stroke-width:0.87975693px;stroke-linecap:butt;stroke-linejoin:miter;stroke-opacity:1"
       d="m 433.87003,220.36633 c -41.18814,-8.85156 -134.79176,-19.59721 -136.85259,-21.27211 3.73494,1.17387 121.03811,24.37223 133.1094,26.79644 1.42438,-2.21832 2.18366,-4.13232 3.74319,-5.52433 z"
       id="path4166"
       inkscape:connector-curvature="0"
       sodipodi:nodetypes="cccc" />
    <text
       transform="scale(0.98040811,1.0199834)"
       sodipodi:linespacing="125%"
       id="text3066"
       y="588.18231"
       x="59.790218"
       style="font-size:27.44808769000000100px;font-style:normal;font-weight:normal;line-height:125%;letter-spacing:0px;word-spacing:0px;fill:#999999;fill-opacity:1;stroke:#999999;stroke-width:1.74843192000000000;stroke-miterlimit:4;stroke-opacity:1;stroke-dasharray:none;font-family:Sans"
       xml:space="preserve"><tspan
         style="font-size:87.42160033999999800px;font-style:normal;font-variant:normal;font-weight:normal;font-stretch:normal;letter-spacing:0px;word-spacing:0px;fill:#999999;fill-opacity:1;stroke:#999999;stroke-width:1.74843192000000000;stroke-miterlimit:4;stroke-opacity:1;stroke-dasharray:none;font-family:Microsoft Yi Baiti;-inkscape-font-specification:Microsoft Yi Baiti"
         y="588.18231"
         x="59.790218"
         id="tspan3068"
         sodipodi:role="line">Creations</tspan></text>
    <path
       style="font-size:27.44808769px;font-style:normal;font-weight:normal;line-height:125%;letter-spacing:0px;word-spacing:0px;fill:#6f6f6f;fill-opacity:1;stroke:#707070;stroke-width:1.74843192;stroke-miterlimit:4;stroke-opacity:1;stroke-dasharray:none;font-family:Sans"
       d="M 83.40625 551.375 C 80.197727 551.37505 77.299483 551.97851 74.71875 553.125 C 72.137985 554.27158 69.92119 555.89787 68.09375 558.03125 C 66.266291 560.16472 64.882744 562.73131 63.90625 565.75 C 62.929745 568.76876 62.437496 572.16412 62.4375 575.9375 C 62.437497 579.39008 62.85118 582.53267 63.65625 585.375 C 64.79791 585.21279 65.960435 585.06394 67.125 584.90625 C 66.35079 582.30621 65.937493 579.31573 65.9375 575.9375 C 65.937493 572.45438 66.364442 569.40815 67.1875 566.78125 C 68.010541 564.15441 69.166939 561.97487 70.6875 560.21875 C 72.208037 558.4627 74.056483 557.11861 76.21875 556.21875 C 78.380981 555.31898 80.786976 554.87505 83.4375 554.875 C 85.306774 554.87505 87.055321 555.13382 88.6875 555.65625 C 90.319619 556.17877 91.775716 556.89822 93.03125 557.8125 C 94.286715 558.72687 95.319213 559.79768 96.15625 561.03125 C 96.993212 562.2649 97.568061 563.609 97.875 565.03125 L 101.34375 565.03125 C 100.92521 563.02848 100.18181 561.16905 99.09375 559.5 C 98.00561 557.83103 96.652763 556.39213 95.0625 555.1875 C 93.472164 553.98296 91.682318 553.0739 89.6875 552.40625 C 87.69262 551.73869 85.610324 551.37505 83.40625 551.375 z M 221.75 552.25 L 221.75 557.6875 L 225.09375 557.6875 L 225.09375 552.25 L 221.75 552.25 z M 204.71875 557.34375 L 204.71875 566.1875 L 200.5625 566.1875 L 200.5625 569.6875 L 204.71875 569.6875 L 204.71875 578.0625 C 205.8428 578.0819 206.94437 578.10229 208.0625 578.125 L 208.0625 569.6875 L 213.375 569.6875 L 213.375 566.1875 L 208.0625 566.1875 L 208.0625 557.34375 L 204.71875 557.34375 z M 124.65625 565.3125 C 123.98663 565.31253 123.24658 565.40067 122.4375 565.53125 C 121.62838 565.6619 120.78509 565.90617 119.90625 566.3125 C 119.02739 566.7189 118.12214 567.30563 117.1875 568.03125 C 116.25284 568.75694 115.32359 569.68273 114.375 570.84375 L 114.375 566.1875 L 111 566.1875 L 111 580.46875 C 112.11633 580.38816 113.24771 580.2958 114.375 580.21875 L 114.375 575.78125 C 114.87719 574.91049 115.45874 574.04602 116.15625 573.21875 C 116.85374 572.39153 117.62839 571.65312 118.4375 571 C 119.24659 570.34694 120.07594 569.81265 120.96875 569.40625 C 121.86153 568.99991 122.80138 568.81253 123.75 568.8125 C 124.22428 568.81253 124.60268 568.81253 124.9375 568.8125 C 125.30018 568.81253 125.66183 568.84823 125.96875 568.90625 L 125.96875 565.40625 C 125.71763 565.37726 125.47653 565.3583 125.28125 565.34375 C 125.08593 565.32927 124.87943 565.31253 124.65625 565.3125 z M 144.71875 565.3125 C 142.57043 565.31253 140.60144 565.71855 138.84375 566.53125 C 137.08604 567.34402 135.56464 568.5074 134.28125 570.03125 C 132.99784 571.55516 132.01 573.43355 131.3125 575.625 C 130.94959 576.76523 130.70534 577.96442 130.53125 579.25 C 131.61635 579.19467 132.71924 579.14586 133.8125 579.09375 C 134.09461 577.66604 134.52117 576.37909 135.03125 575.25 C 135.68689 573.79871 136.47494 572.58289 137.4375 571.625 C 138.40004 570.66716 139.49114 569.96445 140.71875 569.5 C 141.94634 569.03561 143.29583 568.81253 144.71875 568.8125 C 147.59243 568.81253 150.00178 569.7718 151.96875 571.6875 C 153.56688 573.24405 154.67572 575.44089 155.34375 578.28125 C 156.46292 578.25122 157.59311 578.24545 158.71875 578.21875 C 158.56188 577.31838 158.37582 576.44595 158.125 575.625 C 157.45537 573.43355 156.50547 571.55516 155.25 570.03125 C 153.99447 568.5074 152.47308 567.34402 150.6875 566.53125 C 148.90188 565.71855 146.92283 565.31253 144.71875 565.3125 z M 180.125 565.3125 C 176.05158 565.31253 172.97084 566.10338 170.90625 567.65625 C 168.84164 569.20918 167.6473 571.58839 167.3125 574.78125 L 170.625 574.78125 C 170.90399 572.77847 171.79194 571.26817 173.3125 570.28125 C 174.83304 569.29439 177.11513 568.81253 180.15625 568.8125 C 182.22083 568.81253 183.86278 569.07131 185.0625 569.59375 C 186.26218 570.11625 187.16743 570.8357 187.78125 571.75 C 188.39502 572.66435 188.77007 573.7519 188.9375 575 C 189.05879 575.90448 189.12284 576.87985 189.15625 577.90625 C 190.28233 577.91012 191.4101 577.93033 192.53125 577.9375 L 192.53125 577.90625 C 192.53122 575.96152 192.32137 574.20918 191.875 572.65625 C 191.42857 571.10338 190.70917 569.77601 189.71875 568.6875 C 188.72827 567.59905 187.45133 566.76806 185.875 566.1875 C 184.29863 565.60701 182.38488 565.31253 180.125 565.3125 z M 248.3125 565.3125 C 246.13628 565.31253 244.16059 565.73306 242.375 566.53125 C 240.58939 567.3295 239.06799 568.45942 237.8125 569.96875 C 236.55699 571.47814 235.5898 573.3398 234.90625 575.53125 C 234.56733 576.61783 234.32713 577.76715 234.15625 579 C 235.28661 579.05096 236.40935 579.07061 237.53125 579.125 C 237.65912 578.30638 237.81589 577.50646 238.03125 576.78125 C 238.56134 574.99616 239.30474 573.51934 240.28125 572.34375 C 241.25774 571.16822 242.42809 570.28257 243.78125 569.6875 C 245.13439 569.09249 246.63848 568.81253 248.3125 568.8125 C 249.95858 568.81253 251.45933 569.09249 252.8125 569.6875 C 254.16563 570.28257 255.33597 571.16822 256.3125 572.34375 C 257.28897 573.51934 258.04967 574.99616 258.59375 576.78125 C 258.92967 577.88353 259.15274 579.11942 259.28125 580.4375 C 260.41721 580.51918 261.53186 580.6022 262.65625 580.6875 C 262.51924 578.83703 262.22745 577.12519 261.75 575.5625 C 261.08037 573.37105 260.13047 571.52391 258.875 570 C 257.61947 568.47615 256.09808 567.3295 254.3125 566.53125 C 252.52688 565.73306 250.51658 565.31253 248.3125 565.3125 z M 286.375 565.3125 C 285.59378 565.31253 284.73653 565.36719 283.84375 565.46875 C 282.95093 565.57038 282.02168 565.84367 281.03125 566.25 C 280.04079 566.6564 279.01499 567.24757 277.96875 568.03125 C 276.92249 568.81499 275.86934 569.85232 274.78125 571.1875 L 274.78125 566.1875 L 271.4375 566.1875 L 271.4375 581.40625 C 272.55327 581.50293 273.67853 581.58721 274.78125 581.6875 L 274.78125 575.28125 C 276.51104 573.22041 278.25959 571.63205 280.03125 570.5 C 281.80289 569.36801 283.59608 568.81253 285.4375 568.8125 C 286.83248 568.81253 288.00618 568.98095 288.96875 569.34375 C 289.93128 569.70661 290.71263 570.25986 291.3125 571 C 291.91232 571.7402 292.35992 572.69724 292.625 573.84375 C 292.89002 574.99031 293.03122 576.33886 293.03125 577.90625 L 293.03125 583.59375 C 294.15308 583.72549 295.27112 583.86429 296.375 584 L 296.375 577.59375 C 296.37497 569.40838 293.04308 565.31253 286.375 565.3125 z M 316.90625 565.3125 C 315.20434 565.31253 313.67624 565.53117 312.28125 565.9375 C 310.88624 566.3439 309.69524 566.93285 308.71875 567.6875 C 307.74224 568.44221 306.98155 569.34905 306.4375 570.4375 C 305.89345 571.52601 305.625 572.72732 305.625 574.0625 C 305.625 575.60091 305.86945 576.90709 306.34375 577.9375 C 306.81805 578.96795 307.50284 579.83686 308.4375 580.5625 C 309.37214 581.28817 310.53914 581.88157 311.90625 582.375 C 313.27334 582.86846 314.83604 583.3481 316.59375 583.8125 C 318.65833 584.36401 320.33098 584.89608 321.65625 585.375 C 322.98148 585.85395 324.04523 586.35254 324.8125 586.875 C 325.56468 587.38724 326.07865 587.96994 326.375 588.59375 C 327.65196 588.83587 328.92299 589.06385 330.15625 589.3125 C 330.07068 588.38915 329.831 587.57558 329.5 586.84375 C 329.05357 585.85687 328.37547 584.99018 327.46875 584.25 C 326.56197 583.50985 325.44353 582.8495 324.0625 582.3125 C 322.68143 581.77553 321.05678 581.27471 319.1875 580.78125 C 316.81598 580.17172 314.92959 579.56603 313.5625 579 C 312.19539 578.43401 311.18354 577.89527 310.5 577.34375 C 309.81644 576.79227 309.38614 576.24125 309.21875 575.71875 C 309.05134 575.1963 308.96874 574.71222 308.96875 574.21875 C 308.96874 573.34799 309.17524 572.55714 309.59375 571.875 C 310.01224 571.19291 310.60439 570.63744 311.34375 570.1875 C 312.08309 569.73762 312.96769 569.38849 314 569.15625 C 315.03229 568.92407 316.14739 568.81253 317.375 568.8125 C 319.99758 568.81253 321.98723 569.20181 323.3125 570 C 324.63773 570.79825 325.40178 572.03526 325.625 573.71875 L 329 573.71875 C 328.77677 570.81616 327.68233 568.6935 325.6875 567.34375 C 323.69263 565.99406 320.75643 565.31253 316.90625 565.3125 z M 221.71875 566.1875 L 221.71875 578.46875 C 222.83722 578.50564 223.9512 578.55355 225.0625 578.59375 L 225.0625 566.1875 L 221.71875 566.1875 z "
       id="text4122-7" />
  </g>
</svg>
