# Blender v2.63 (sub 0) OBJ File: 'buisson.blend'
# www.blender.org
mtllib buisson.mtl
o Plane
v 0.490614 0.664580 1.305326
v -1.089866 1.621678 0.539789
v 1.089866 0.178322 -0.539789
v -0.490613 1.135420 -1.305326
v 1.070896 1.412091 0.768729
v -0.374117 0.064357 1.077839
v 0.374117 1.735644 -1.077839
v -1.070896 0.387909 -0.768729
v 0.261852 -0.484495 0.120861
v -0.261852 0.971635 1.387913
v 0.261852 0.828365 -1.387913
v -0.261852 2.284495 -0.120861
v -0.463770 2.225235 0.169323
v 1.307988 1.313866 0.343340
v -1.307988 0.486134 -0.343340
v 0.463770 -0.425235 -0.169323
vt 0.665833 0.665833
vt 0.332500 0.665833
vt 0.332500 0.332500
vt 0.665833 0.332500
vt 0.333333 0.333333
vt 0.666667 0.333333
vt 0.666667 0.666667
vt 0.333333 0.666667
vt 0.665833 0.334167
vt 0.665833 0.667500
vt 0.332500 0.667500
vt 0.332500 0.334167
vt 0.332500 0.333333
vt 0.665833 0.333333
vt 0.665833 0.666667
vt 0.332500 0.666667
vn 0.534551 0.843729 -0.048744
vn -0.597168 0.720924 0.351653
vn 0.965108 0.197538 0.171887
vn -0.192465 -0.190352 0.962665
usemtl _buisson.png
s off
f 2/1/1 1/2/1 3/3/1 4/4/1
f 7/5/2 8/6/2 6/7/2 5/8/2
f 11/9/3 12/10/3 10/11/3 9/12/3
f 15/13/4 16/14/4 14/15/4 13/16/4
