# Blender v2.63 (sub 0) OBJ File: 'mine_pierre.blend'
# www.blender.org
mtllib mine_pierre.mtl
o Plane
v -0.643845 0.086000 0.560152
v -0.724172 0.032664 0.519862
v -0.774555 0.032664 0.561939
v -0.723701 0.062778 0.679849
v -0.790705 0.016419 0.571418
v -0.735254 0.016419 0.500980
v -0.642091 0.056620 0.538661
v -0.625144 0.031202 0.663027
v -0.634904 0.026222 0.660487
v -0.735129 0.015525 0.511760
v -0.708609 0.026222 0.660656
v -0.730018 0.022357 0.669087
v -0.718188 0.010769 0.490964
v -0.624761 0.022733 0.528489
v -0.622437 0.018345 0.667639
v -0.625144 0.005220 0.663027
v -0.642091 0.005220 0.538661
v -0.790705 0.005220 0.571418
v -0.748929 0.005220 0.680186
v 0.142374 0.917342 -0.330368
v 0.432217 0.901116 -0.190685
v 0.406047 0.902714 -0.028107
v 0.219884 0.912051 0.071304
v 0.020873 0.921924 -0.140767
v 0.040327 0.961801 -0.105675
v 0.250673 0.946383 0.114960
v 0.469994 0.976580 -0.001349
v 0.500580 0.973533 -0.191425
v 0.129559 0.951883 -0.364936
v 0.117972 1.024523 -0.340224
v 0.438344 1.003205 -0.190189
v 0.240895 1.112140 0.071800
v 0.194188 1.118164 -0.104422
v -0.254282 0.174928 1.055010
v -0.170758 0.156139 0.870272
v -0.276570 0.110338 0.817735
v -0.398420 0.114515 1.006501
v -0.323669 0.106454 0.794670
v -0.149746 0.069669 0.846212
v -0.170799 0.053872 0.871238
v -0.262557 0.046909 0.776974
v -0.364343 0.046909 0.789464
v -0.397594 0.063620 0.987293
v -0.397594 0.038241 0.987293
v -0.170799 0.042883 0.871238
v -0.254015 0.044624 1.048788
v -0.264667 0.036845 1.037180
v -0.254015 0.004035 1.048788
v -0.170799 0.004035 0.871238
v -0.261567 0.004035 0.753933
v -0.393570 0.004035 0.788207
v -0.430982 0.004035 0.966344
v 0.580926 0.001673 0.978187
v 0.735354 0.002313 0.692855
v 0.309406 0.003367 0.910313
v 0.563273 0.003032 0.515740
v 0.735354 0.025871 0.692855
v 0.595471 0.062334 0.954233
v 0.774921 0.055526 0.645914
v 0.573706 0.102463 0.439097
v 0.373283 0.139712 0.871805
v 0.402469 0.131869 0.539495
v 0.565693 0.120890 0.460649
v 0.735434 0.217849 0.691042
v 0.587059 0.244328 0.838599
v 0.561770 0.005700 0.985398
v 0.317856 1.051392 0.043501
v -0.045781 -0.000311 0.865173
v -1.060578 -0.000311 0.201412
v -0.258161 -0.000311 -0.872088
v 1.060797 -0.000311 -0.269080
v 1.060797 0.435094 -0.269080
v -0.244093 0.513449 -0.933560
v -1.003211 0.435094 0.214541
v -0.045781 0.435094 0.865173
v -0.041228 0.466711 0.794511
v -0.912061 0.466711 0.202727
v -0.221603 0.519716 -0.841531
v 0.965264 0.466711 -0.237151
v 0.965264 0.878451 -0.237151
v -0.221603 0.878451 -0.841531
v -0.912061 0.798637 0.202727
v 0.202688 0.878451 0.596088
v -0.200846 0.949175 -0.058124
v -0.831700 0.828398 0.194880
v -0.200788 0.902168 -0.759319
v 0.883721 0.902168 -0.207062
v -0.035139 0.878451 0.798681
v 1.026130 0.005681 -0.209938
v 1.238653 0.005681 -0.164089
v 1.109573 0.005681 0.434233
v 0.897050 0.005681 0.388384
v 1.026130 0.223094 -0.209938
v 1.238653 0.223094 -0.164089
v 1.109573 0.192530 0.434233
v 0.897050 0.192530 0.388384
v -1.106160 0.127486 -0.210994
v -1.050794 0.127486 -0.103200
v -0.747318 0.127486 -0.259073
v -0.802683 0.127486 -0.366868
v -1.106160 0.006304 -0.210994
v -1.050794 0.006304 -0.103200
v -0.747317 0.006304 -0.259073
v -0.802684 0.006304 -0.366868
v 0.277020 0.000606 -0.757255
v 0.337176 0.000606 -0.862451
v 0.633338 0.000606 -0.693089
v 0.573181 0.000606 -0.587893
v 0.277020 0.121788 -0.757255
v 0.337177 0.121788 -0.862451
v 0.633338 0.121788 -0.693089
v 0.573181 0.121788 -0.587893
vt 0.821979 0.179457
vt 0.843678 0.207064
vt 0.832692 0.210666
vt 0.814777 0.179609
vt 0.798496 0.154289
vt 0.811074 0.157657
vt 0.880602 0.233035
vt 0.871718 0.236170
vt 0.889521 0.189580
vt 0.899677 0.207860
vt 0.881102 0.240488
vt 0.910327 0.201916
vt 0.771534 0.261749
vt 0.807845 0.218103
vt 0.819305 0.222278
vt 0.775815 0.268840
vt 0.778956 0.120206
vt 0.771529 0.124048
vt 0.783971 0.088621
vt 0.788190 0.089202
vt 0.218829 0.611138
vt 0.227209 0.597513
vt 0.272185 0.660728
vt 0.257916 0.661424
vt 0.194980 0.532387
vt 0.202213 0.519772
vt 0.165008 0.489749
vt 0.181701 0.466485
vt 0.215770 0.732607
vt 0.225911 0.756315
vt 0.178272 0.771007
vt 0.174969 0.744988
vt 0.265412 0.447065
vt 0.305886 0.543427
vt 0.282442 0.537881
vt 0.261439 0.464595
vt 0.223304 0.519871
vt 0.233323 0.538278
vt 0.240766 0.529059
vt 0.532951 0.194935
vt 0.574966 0.197388
vt 0.549030 0.139421
vt 0.581068 0.145378
vt 0.484333 0.302098
vt 0.538720 0.247473
vt 0.545670 0.254800
vt 0.483211 0.317526
vt 0.565632 0.247597
vt 0.502091 0.318995
vt 0.640192 0.284529
vt 0.679158 0.334922
vt 0.661933 0.362314
vt 0.626880 0.295907
vt 0.653282 0.365599
vt 0.591015 0.316324
vt 0.582132 0.272259
vt 0.548332 0.350680
vt 0.625401 0.407689
vt 0.495160 0.383383
vt 0.554754 0.446327
vt 0.679158 0.393517
vt 0.647279 0.280192
vt 0.436962 0.325564
vt 0.459593 0.402486
vt 0.449003 0.334911
vt 0.536514 0.497027
vt 0.784378 0.271153
vt 0.868109 0.242329
vt 0.810474 0.180312
vt 0.812663 0.192899
vt 0.804446 0.151268
vt 0.847088 0.124465
vt 0.832983 0.116248
vt 0.824725 0.113627
vt 0.793248 0.151712
vt 0.789346 0.154122
vt 0.482272 0.146329
vt 0.477986 0.128462
vt 0.477501 0.141875
vt 0.613520 0.200973
vt 0.619397 0.247859
vt 0.622302 0.197731
vt 0.610981 0.237402
vt 0.608517 0.197273
vt 0.553590 0.120233
vt 0.554373 0.107737
vt 0.519361 0.109846
vt 0.527219 0.120637
vt 0.614775 0.147229
vt 0.615163 0.195732
vt 0.624281 0.197324
vt 0.624651 0.147463
vt 0.597046 0.104163
vt 0.616077 0.132260
vt 0.604871 0.094348
vt 0.624651 0.127079
vt 0.612233 0.134449
vt 0.603624 0.138074
vt 0.579332 0.112837
vt 0.535690 0.137189
vt 0.520587 0.109052
vt 0.520219 0.189129
vt 0.604455 0.237536
vt 0.590501 0.236504
vt 0.608189 0.146787
vt 0.211405 0.502743
vt 0.217121 0.456823
vt 0.386854 0.493769
vt 0.457612 0.742828
vt 0.369428 0.770455
vt 0.312080 0.515011
vt 0.555179 0.961309
vt 0.481927 0.989361
vt 0.309547 0.221635
vt 0.234773 0.242876
vt 0.178302 0.044080
vt 0.250477 0.013367
vt 0.953180 0.457670
vt 0.927985 0.478679
vt 0.767122 0.434673
vt 0.745663 0.404436
vt 0.685998 0.643011
vt 0.720623 0.620428
vt 0.953180 0.722744
vt 0.926290 0.679952
vt 0.136215 0.531953
vt 0.133889 0.769911
vt 0.069873 0.771832
vt 0.062741 0.534158
vt 0.150052 0.993024
vt 0.090820 0.994802
vt 0.557181 0.908692
vt 0.598374 0.686435
vt 0.620529 0.712128
vt 0.587572 0.888622
vt 0.790591 0.982192
vt 0.769535 0.945493
vt 0.666388 0.809421
vt 0.790591 0.776233
vt 0.128858 0.274743
vt 0.056693 0.332596
vt 0.216850 0.926486
vt 0.218785 0.887720
vt 0.327925 0.893169
vt 0.325989 0.931936
vt 0.329861 0.854403
vt 0.220449 0.854403
vt 0.220449 0.815588
vt 0.329861 0.815588
vt 0.368676 0.854403
vt 0.368675 0.815588
vt 0.324054 0.970702
vt 0.215186 0.959802
vt 0.187091 0.815588
vt 0.187091 0.854403
vt 0.598448 0.556458
vt 0.598448 0.534824
vt 0.659356 0.534824
vt 0.659356 0.556458
vt 0.576814 0.513189
vt 0.598448 0.513189
vt 0.576814 0.534824
vt 0.659356 0.578093
vt 0.659356 0.599728
vt 0.598448 0.599728
vt 0.598448 0.578093
vt 0.680991 0.534824
vt 0.659356 0.513189
vt 0.680991 0.513189
vt 0.555179 0.595732
vt 0.533544 0.595732
vt 0.533544 0.534824
vt 0.555179 0.534824
vt 0.511910 0.534824
vt 0.511910 0.595732
vt 0.490275 0.595732
vt 0.490275 0.534824
vt 0.511910 0.513189
vt 0.490275 0.513189
vt 0.576813 0.595733
vt 0.490275 0.617367
vt 0.511910 0.617367
vt 0.784283 0.722562
vt 0.055367 0.276836
vt 0.067621 0.087407
vt 0.126877 0.086783
vn -0.023197 0.665159 -0.746341
vn -0.566351 0.628855 -0.532717
vn 0.002475 -0.463353 0.886170
vn 0.022966 0.792061 0.610010
vn 0.829003 -0.554863 -0.069862
vn 0.081852 0.152662 0.984883
vn -0.901013 0.083390 -0.425702
vn -0.715017 -0.220053 0.663572
vn 0.359193 -0.709254 0.606580
vn 0.724561 -0.677681 0.125539
vn 0.382746 -0.462739 -0.799611
vn 0.373476 0.472011 -0.798575
vn -0.757137 0.405314 0.512312
vn -0.834937 0.533876 -0.133629
vn 0.402904 0.912114 -0.075608
vn 0.257835 0.866498 -0.427437
vn -0.312381 0.923632 -0.222086
vn -0.290367 0.929880 -0.225855
vn 0.781495 0.422791 0.458817
vn 0.832859 -0.269667 0.483348
vn 0.494396 -0.693375 -0.524218
vn 0.673783 0.405054 -0.618019
vn 0.798718 0.225355 0.557911
vn -0.094356 0.940544 -0.326304
vn -0.115199 0.951125 -0.286515
vn -0.446298 0.892852 -0.060269
vn -0.127784 0.527669 0.839784
vn -0.958105 -0.104903 -0.266515
vn -0.423374 -0.376484 -0.824023
vn 0.717226 0.000000 -0.696840
vn -0.124233 0.534097 0.836245
vn 0.083041 0.947578 -0.308544
vn -0.267449 0.375884 0.887233
vn -0.911386 0.401698 -0.089525
vn -0.609840 -0.688912 -0.391784
vn 0.526636 0.849900 0.018005
vn 0.886760 0.461468 -0.026519
vn 0.441786 -0.895269 0.057613
vn 0.421969 -0.903092 -0.079792
vn 0.294329 0.409702 -0.863432
vn -0.264643 0.870617 -0.414717
vn 0.984915 0.136533 -0.106306
vn 0.340721 0.854081 0.393009
vn -0.489094 0.857439 -0.159953
vn -0.674292 0.731091 0.104099
vn -0.152323 0.971356 -0.182387
vn -0.581914 -0.553202 0.596107
vn -0.161982 0.985954 0.040711
vn -0.933513 0.000000 0.358543
vn -0.543609 0.787688 0.289890
vn -0.102909 -0.991386 -0.081013
vn -0.731698 0.000000 -0.681629
vn -0.732945 0.213539 -0.645905
vn 0.341217 -0.701244 -0.625961
vn -0.018896 -0.996139 -0.085729
vn -0.531482 0.000000 0.847070
vn -0.415348 0.180609 0.891553
vn -0.344622 -0.222199 0.912066
vn -0.267313 -0.668966 0.693562
vn -0.185558 0.323978 -0.927689
vn 0.420823 -0.883467 0.205896
vn 0.827536 0.405898 0.387855
vn 0.870396 0.000000 0.492352
vn 0.675923 0.360925 -0.642543
vn 0.790883 0.000000 -0.611968
vn 0.716566 0.000000 -0.697519
vn 0.348424 -0.896723 -0.272927
vn 0.304836 0.323335 -0.895840
vn -0.103929 0.521335 -0.847000
vn 0.348362 0.560009 -0.751687
vn -0.054249 0.996895 -0.057081
vn -0.804285 0.565382 -0.182944
vn -0.809776 0.557407 -0.183193
vn -0.831515 0.527338 -0.174634
vn -0.935843 0.111039 -0.334468
vn 0.443354 -0.227027 -0.867119
vn -0.393708 0.000000 0.919236
vn -0.398293 -0.044564 0.916175
vn -0.163379 -0.350653 0.922144
vn 0.909836 0.109734 0.400196
vn 0.812452 -0.243740 0.529634
vn 0.905696 -0.018365 0.423531
vn 0.905481 0.000000 0.424387
vn 0.649675 0.737905 0.182809
vn 0.499469 0.245772 0.830739
vn 0.409172 0.319774 0.854590
vn 0.452483 0.890387 0.049697
vn 0.430594 0.900878 0.054845
vn 0.432496 -0.064653 -0.899315
vn -0.818229 0.032346 -0.573982
vn -0.554416 0.023982 0.831894
vn -0.258635 0.887839 0.380591
vn -0.246732 0.963333 -0.105417
vn 0.154907 0.966609 -0.204134
vn 0.453776 0.000000 -0.891116
vn -0.834151 0.000000 -0.551536
vn -0.361119 0.917210 -0.168281
vn 0.074409 0.992936 0.092416
vn 0.158082 0.937357 -0.310438
vn 0.404934 0.824597 0.395055
vn 0.404934 0.824597 0.395054
vn 0.713060 -0.087169 0.695663
vn 0.737695 0.000000 0.675134
vn 0.715785 0.000000 0.698321
vn 0.000000 -1.000000 0.000000
vn -0.010517 0.998756 0.048750
vn 0.210886 0.000000 -0.977511
vn 0.977511 -0.000000 0.210886
vn -0.210886 0.000000 0.977511
vn -0.977511 0.000000 -0.210885
vn -0.456884 0.000000 -0.889526
vn -0.889526 0.000000 0.456884
vn 0.456884 -0.000000 0.889526
vn 0.889527 0.000000 -0.456883
vn 0.000000 1.000000 0.000000
vn -0.868083 0.000000 -0.496419
vn 0.496418 -0.000000 -0.868084
vn 0.868084 0.000000 0.496418
vn -0.496418 0.000000 0.868083
vn -0.300878 0.897466 0.322534
vn -0.562071 -0.000036 0.827089
vn 0.648369 -0.017297 0.761129
vn -0.144518 0.983466 0.109128
vn 0.060109 0.995695 0.070563
vn -0.212860 0.974893 -0.065372
vn 0.034040 0.997182 -0.066846
usemtl _mine_pierre.png
s off
f 2/1/1 1/2/1 7/3/1 6/4/1
f 5/5/2 3/6/2 2/1/2 6/4/2
f 9/7/3 8/8/3 4/9/3 11/10/3
f 15/11/4 9/7/4 11/10/4 12/12/4
f 16/13/5 17/14/5 14/15/5 15/16/5
f 12/17/6 19/18/6 16/19/6 15/20/6
f 24/21/7 25/22/7 29/23/7 20/24/7
f 24/21/8 23/25/8 26/26/8 25/22/8
f 23/25/9 22/27/9 27/28/9 26/26/9
f 21/29/10 28/30/10 27/31/10 22/32/10
f 21/29/11 20/24/11 29/23/11 28/30/11
f 28/33/12 29/34/12 30/35/12 31/36/12
f 25/22/13 26/26/13 32/37/13 33/38/13
f 25/22/14 33/38/14 30/35/14 29/34/14
f 31/39/15 33/38/15 32/37/15
f 30/35/16 33/38/16 31/39/16
f 37/40/17 34/41/17 36/42/17
f 36/42/18 34/41/18 35/43/18
f 53/44/19 54/45/19 57/46/19 66/47/19
f 66/47/20 57/46/20 59/48/20 58/49/20
f 57/50/21 56/51/21 60/52/21 59/53/21
f 59/53/22 60/52/22 63/54/22 64/55/22
f 58/49/23 59/56/23 64/55/23 65/57/23
f 62/58/24 64/55/24 63/54/24
f 62/58/25 65/57/25 64/55/25
f 61/59/26 65/57/26 62/60/26
f 58/49/27 65/57/27 61/59/27
f 56/61/28 63/54/28 60/52/28
f 56/61/29 62/58/29 63/54/29
f 54/62/30 56/51/30 57/50/30
f 66/47/31 58/49/31 61/59/31
f 53/63/32 55/64/32 66/65/32
f 55/64/33 66/65/33 61/59/33
f 55/64/34 61/59/34 62/60/34
f 55/64/35 62/60/35 56/66/35
f 9/67/36 15/16/36 14/15/36
f 7/3/37 8/8/37 14/15/37
f 8/8/38 9/68/38 14/15/38
f 6/4/39 7/3/39 10/69/39
f 7/3/40 14/15/40 13/70/40
f 7/3/41 13/70/41 10/69/41
f 1/2/42 8/8/42 7/3/42
f 1/2/43 4/9/43 8/8/43
f 1/2/44 2/1/44 4/9/44
f 3/6/45 5/71/45 4/72/45
f 2/1/46 3/6/46 4/72/46
f 4/72/47 5/71/47 11/73/47
f 5/71/48 12/74/48 11/73/48
f 5/75/49 18/76/49 19/18/49
f 5/75/50 19/18/50 12/17/50
f 5/5/51 6/4/51 10/69/51
f 5/75/52 10/69/52 18/76/52
f 10/69/53 13/70/53 18/76/53
f 13/70/54 14/15/54 17/14/54
f 13/70/55 17/14/55 18/76/55
f 43/77/56 52/78/56 44/79/56
f 47/80/57 52/81/57 48/82/57
f 44/83/58 52/81/58 47/80/58
f 44/83/59 47/80/59 46/84/59
f 41/85/60 50/86/60 51/87/60 42/88/60
f 45/89/61 46/84/61 47/90/61
f 47/90/62 48/91/62 49/92/62
f 45/89/63 47/90/63 49/92/63
f 41/93/64 45/94/64 50/95/64
f 45/94/65 49/96/65 50/95/65
f 40/97/66 45/94/66 41/93/66
f 39/98/67 40/97/67 41/93/67
f 35/43/68 39/98/68 36/99/68
f 36/42/69 41/85/69 42/88/69
f 36/99/70 39/98/70 41/93/70
f 36/42/71 38/100/71 37/40/71
f 38/100/72 42/88/72 43/77/72
f 42/88/73 51/101/73 43/77/73
f 43/77/74 51/101/74 52/78/74
f 37/40/75 38/100/75 43/102/75
f 36/42/76 42/88/76 38/100/76
f 43/103/77 44/83/77 46/84/77
f 34/41/78 43/103/78 46/84/78
f 34/41/79 37/104/79 43/103/79
f 34/41/80 39/98/80 35/43/80
f 34/41/81 40/105/81 39/98/81
f 34/41/82 46/84/82 40/105/82
f 40/105/83 46/84/83 45/89/83
f 31/36/84 32/37/84 67/106/84
f 26/26/85 67/106/85 32/37/85
f 26/26/86 27/28/86 67/106/86
f 27/107/87 31/36/87 67/106/87
f 27/107/88 28/33/88 31/36/88
f 71/108/89 70/109/89 73/110/89 72/111/89
f 70/109/90 69/112/90 74/113/90 73/110/90
f 68/114/91 75/115/91 74/116/91 69/117/91
f 75/118/92 76/119/92 77/120/92 74/121/92
f 73/122/93 74/121/93 77/120/93 78/123/93
f 72/124/94 73/122/94 78/123/94 79/125/94
f 79/126/95 78/127/95 81/128/95 80/129/95
f 78/127/96 77/130/96 82/131/96 81/128/96
f 81/132/97 82/133/97 85/134/97 86/135/97
f 80/136/98 87/137/98 84/138/98 83/139/98
f 80/136/99 81/132/99 86/135/99 87/137/99
f 72/124/100 79/125/100 75/118/100
f 75/118/101 79/125/101 76/119/101
f 76/140/102 79/126/102 83/141/102
f 79/126/103 80/129/103 83/141/103
f 68/114/104 71/108/104 72/111/104 75/115/104
f 91/142/105 92/143/105 89/144/105 90/145/105
f 93/146/106 96/147/106 95/148/106 94/149/106
f 89/150/107 93/146/107 94/149/107 90/151/107
f 90/145/108 94/152/108 95/153/108 91/142/108
f 91/154/109 95/148/109 96/147/109 92/155/109
f 92/143/110 96/147/110 93/146/110 89/144/110
f 101/156/111 97/157/111 100/158/111 104/159/111
f 102/160/112 98/161/112 97/157/112 101/162/112
f 103/163/113 99/164/113 98/165/113 102/166/113
f 104/167/114 100/158/114 99/168/114 103/169/114
f 100/158/115 97/157/115 98/161/115 99/168/115
f 102/166/105 101/156/105 104/159/105 103/163/105
f 107/170/105 108/171/105 105/172/105 106/173/105
f 109/174/115 112/175/115 111/176/115 110/177/115
f 105/178/116 109/174/116 110/177/116 106/179/116
f 106/173/117 110/162/117 111/180/117 107/170/117
f 107/181/118 111/176/118 112/175/118 108/182/118
f 108/171/119 112/175/119 109/174/119 105/172/119
f 88/183/120 85/134/120 82/133/120
f 76/140/121 88/184/121 82/185/121 77/186/121
f 76/140/122 83/141/122 88/184/122
f 85/134/123 88/183/123 84/138/123
f 88/183/124 83/139/124 84/138/124
f 85/134/125 84/138/125 86/135/125
f 86/135/126 84/138/126 87/137/126
