# Blender v2.61 (sub 0) OBJ File: 'sapin2.blend'
# www.blender.org
mtllib sapin2.mtl
o Cylinder
v -0.000000 0.000000 -0.224962
v 0.180376 0.000000 -0.110098
v 0.228783 0.000000 0.030644
v 0.098529 0.000000 0.206477
v -0.059751 0.000000 0.184664
v -0.216662 0.000000 0.030644
v -0.207667 0.000000 -0.085861
v -0.000000 1.920476 -0.137711
v 0.107667 1.920476 -0.085861
v 0.134258 1.920476 0.030644
v 0.059750 1.920476 0.124073
v -0.059751 1.920476 0.124073
v -0.134258 1.920476 0.030644
v -0.107667 1.920476 -0.085861
v -0.091183 2.320477 -0.072716
v -0.113704 2.320477 0.025952
v -0.050603 2.320477 0.105078
v 0.050603 2.320477 0.105078
v 0.113704 2.320477 0.025952
v 0.091183 2.320477 -0.072716
v -0.000000 2.320477 -0.116628
v -0.084693 2.630941 -0.067540
v -0.105610 2.630941 0.024105
v -0.047001 2.630941 0.097598
v 0.047001 2.630941 0.097598
v 0.105610 2.630941 0.024105
v 0.084692 2.630941 -0.067540
v -0.000000 2.630941 -0.108326
v -0.000000 3.230941 -0.093214
v 0.072878 3.230941 -0.058118
v 0.090877 3.230941 0.020742
v 0.040444 3.230941 0.083983
v -0.040444 3.230941 0.083983
v -0.090877 3.230941 0.020742
v -0.072878 3.230941 -0.058118
v -0.054729 3.830940 -0.043645
v -0.068245 3.830940 0.015577
v -0.030372 3.830940 0.063068
v 0.030372 3.830940 0.063068
v 0.068245 3.830940 0.015577
v 0.054729 3.830940 -0.043645
v -0.000000 3.830940 -0.070000
v 0.574523 1.378101 1.009773
v 1.224785 1.269196 0.092296
v 0.884003 1.298187 -0.782944
v 0.094573 1.319706 -1.049286
v -0.834558 1.249098 -0.581293
v -0.579181 1.235002 0.918972
v -0.983115 1.221097 0.460923
v -0.837792 1.758154 0.105348
v -0.580135 1.780668 0.690519
v 0.627024 1.780668 0.840049
v 1.064246 1.746328 -0.027476
v 0.595904 1.865478 -0.816568
v -0.800157 1.732275 -0.421299
v 0.761490 2.143724 -0.004015
v 0.615157 2.185697 0.653129
v 0.520031 2.200983 -0.644359
v 0.110015 2.227906 -0.680634
v -0.377703 2.168525 0.634677
v -0.660237 2.147330 0.352161
v -0.457585 2.136121 -0.522560
v -0.425697 2.496212 0.393411
v 0.000865 2.521606 0.619512
v 0.557654 2.522490 0.237372
v 0.627168 2.512185 -0.288765
v 0.168952 2.478340 -0.511896
v -0.373880 2.583464 -0.377070
v -0.565493 2.576160 -0.103590
v -0.241740 3.122765 0.353402
v 0.066506 3.134746 0.497788
v 0.426593 3.190613 0.165247
v 0.422563 3.201338 -0.142930
v 0.096460 3.203764 -0.368588
v -0.259136 3.214317 -0.332508
v -0.405566 3.168328 -0.056210
v 0.000000 3.943850 0.000000
v -0.120193 1.883223 -0.880687
vt 0.789164 0.214087
vt 0.813902 0.214087
vt 0.813902 0.304141
vt 0.789164 0.304141
vt 0.838771 0.214087
vt 0.838771 0.304141
vt 0.863718 0.214087
vt 0.863718 0.304141
vt 0.888690 0.214087
vt 0.888690 0.304141
vt 0.913637 0.214087
vt 0.913637 0.304141
vt 0.938506 0.214087
vt 0.938506 0.304141
vt 0.963244 0.214087
vt 0.963244 0.304141
vt 0.925464 0.386611
vt 0.945209 0.386611
vt 0.945209 0.522222
vt 0.925464 0.522222
vt 0.905695 0.386611
vt 0.905695 0.522222
vt 0.885913 0.386611
vt 0.885913 0.522222
vt 0.866125 0.386611
vt 0.866125 0.522222
vt 0.846343 0.386611
vt 0.846343 0.522222
vt 0.826574 0.386611
vt 0.826574 0.522222
vt 0.806830 0.386611
vt 0.806830 0.522222
vt 0.810465 0.528700
vt 0.828544 0.528700
vt 0.828544 0.664565
vt 0.810465 0.664565
vt 0.846624 0.528700
vt 0.846624 0.664565
vt 0.864704 0.528700
vt 0.864704 0.664565
vt 0.882785 0.528700
vt 0.882785 0.664565
vt 0.900865 0.528700
vt 0.900865 0.664565
vt 0.918946 0.528700
vt 0.918946 0.664565
vt 0.937026 0.528700
vt 0.937026 0.664565
vt 0.752601 0.005987
vt 0.793319 0.005987
vt 0.793319 0.206349
vt 0.752601 0.206349
vt 0.819949 0.005987
vt 0.819949 0.206349
vt 0.858211 0.005987
vt 0.858211 0.206349
vt 0.889733 0.005987
vt 0.889733 0.206349
vt 0.927869 0.005987
vt 0.927869 0.206349
vt 0.957741 0.005987
vt 0.957741 0.206349
vt 0.994446 0.005987
vt 0.994446 0.206349
vt 0.278529 0.265113
vt 0.268340 0.236977
vt 0.422361 0.097211
vt 0.502002 0.330340
vt 0.233079 0.291059
vt 0.260700 0.289624
vt 0.364527 0.479973
vt 0.181109 0.479973
vt 0.239442 0.226646
vt 0.214316 0.242890
vt 0.061307 0.080563
vt 0.177837 0.014080
vt 0.864230 0.311374
vt 0.886317 0.311374
vt 0.886317 0.381539
vt 0.864230 0.381539
vt 0.908399 0.311374
vt 0.908399 0.381539
vt 0.842148 0.311374
vt 0.842148 0.381539
vt 0.820084 0.311374
vt 0.820084 0.381539
vt 0.798049 0.381539
vt 0.798049 0.311374
vt 0.930463 0.311374
vt 0.952497 0.311374
vt 0.952497 0.381539
vt 0.930463 0.381539
vt 0.209487 0.834722
vt 0.236758 0.834197
vt 0.377363 0.978004
vt 0.114635 0.978004
vt 0.585032 0.812870
vt 0.593151 0.831822
vt 0.487776 0.929313
vt 0.440284 0.854931
vt 0.631194 0.804654
vt 0.616467 0.792068
vt 0.668836 0.669413
vt 0.755971 0.703409
vt 0.613360 0.838180
vt 0.630013 0.824491
vt 0.771845 0.863671
vt 0.693931 0.986829
vt 0.635006 0.261754
vt 0.644541 0.250222
vt 0.766753 0.274938
vt 0.704081 0.382379
vt 0.615549 0.235728
vt 0.612314 0.248594
vt 0.504818 0.267121
vt 0.507925 0.192320
vt 0.642985 0.235065
vt 0.629304 0.227194
vt 0.592347 0.099328
vt 0.707343 0.116113
vt 0.475122 0.553098
vt 0.484150 0.554485
vt 0.477681 0.642205
vt 0.415522 0.619688
vt 0.490632 0.540594
vt 0.484780 0.535323
vt 0.521988 0.462251
vt 0.562794 0.514451
vt 0.475400 0.536044
vt 0.470447 0.544551
vt 0.377842 0.513742
vt 0.423361 0.462251
vt 0.674673 0.469856
vt 0.681354 0.461033
vt 0.696798 0.479669
vt 0.691265 0.456107
vt 0.702332 0.456107
vt 0.712242 0.461033
vt 0.718923 0.469856
vt 0.720979 0.480730
vt 0.672618 0.480730
vt 0.490383 0.548522
vt 0.557120 0.594626
vt 0.620409 0.259877
vt 0.584622 0.382379
vt 0.596240 0.794371
vt 0.525766 0.669413
vt 0.251767 0.811568
vt 0.458204 0.781084
vt 0.239983 0.785711
vt 0.328550 0.627335
vt 0.196082 0.793017
vt 0.193029 0.816802
vt 0.033887 0.859347
vt 0.020480 0.743576
vt 0.215525 0.779842
vt 0.169093 0.624613
vt 0.010240 0.316505
vt 0.211855 0.271775
vn -0.433395 0.047434 -0.899955
vn -0.973831 0.047434 -0.222270
vn -0.780951 0.047434 0.622788
vn 0.000000 0.047434 0.998874
vn 0.780951 0.047434 0.622788
vn 0.973830 0.047435 -0.222271
vn 0.433396 0.047434 -0.899955
vn 0.433772 0.022685 -0.900737
vn 0.974677 0.022685 -0.222464
vn 0.781630 0.022685 0.623330
vn 0.000000 0.022685 0.999743
vn -0.781630 0.022685 0.623329
vn -0.974677 0.022685 -0.222463
vn -0.433772 0.022685 -0.900737
vn -0.433620 0.034837 -0.900422
vn -0.974336 0.034837 -0.222386
vn -0.781357 0.034837 0.623111
vn 0.000000 0.034837 0.999393
vn 0.781357 0.034837 0.623112
vn 0.974336 0.034837 -0.222386
vn 0.433620 0.034837 -0.900422
vn -0.517702 0.032899 -0.854928
vn -0.987450 0.046893 -0.150810
vn -0.730114 0.026435 0.682813
vn -0.078233 0.036300 0.996274
vn 0.795332 0.040578 0.604814
vn 0.959121 0.043524 -0.279627
vn 0.500629 0.034584 -0.864971
vn 0.477473 0.841844 0.251632
vn 0.204323 0.829390 -0.519966
vn -0.464820 0.798217 0.383134
vn 0.000000 0.024086 0.999710
vn 0.781604 0.024086 0.623309
vn -0.781605 0.024086 0.623309
vn -0.974645 0.024086 -0.222456
vn -0.433758 0.024086 -0.900707
vn 0.433758 0.024086 -0.900707
vn 0.974645 0.024086 -0.222457
vn 0.072329 -0.770876 -0.632865
vn 0.461948 -0.793894 -0.395394
vn -0.129490 -0.831027 0.540950
vn -0.570711 -0.813289 -0.113362
vn 0.812139 0.580447 0.059265
vn -0.713791 0.565686 -0.412918
vn -0.363207 0.547824 0.753637
vn -0.868238 -0.495412 0.027006
vn 0.830174 -0.445903 0.334638
vn 0.335678 -0.464866 -0.819280
vn -0.851147 0.487656 -0.194269
vn -0.682567 0.487656 0.544329
vn 0.682567 0.487656 0.544329
vn 0.851147 0.487655 -0.194269
vn 0.378796 0.487655 -0.786578
vn -0.378796 0.487656 -0.786578
vn 0.000000 0.487656 0.873036
vn -0.576775 -0.464165 -0.672221
vn -0.501663 -0.424036 0.754008
vn 0.124748 -0.432562 0.892932
vn 0.825421 -0.394734 -0.403566
vn -0.778864 0.527234 0.339698
vn 0.505309 0.518289 0.689956
vn -0.158773 0.471885 -0.867246
vn 0.347649 0.516291 -0.782677
vn 0.023007 -0.766539 -0.641785
vn 0.703902 -0.689445 0.170845
vn -0.586918 -0.795983 0.148112
vn 0.285761 -0.756603 0.588126
vn -0.502129 -0.832195 -0.235197
vn -0.506803 -0.845790 0.166706
vn 0.612922 -0.784834 0.091442
vn 0.563450 -0.788885 -0.245327
vn -0.084801 -0.866851 0.491303
vn 0.429434 -0.800615 0.417854
vn -0.327411 0.769383 -0.548499
vn -0.652308 0.753679 -0.080388
vn 0.516316 0.840017 -0.166704
vn -0.131670 0.800599 0.584555
usemtl Material_sapin.png
s off
f 8/1/1 14/2/1 15/3/1 21/4/1
f 14/2/2 13/5/2 16/6/2 15/3/2
f 13/5/3 12/7/3 17/8/3 16/6/3
f 12/7/4 11/9/4 18/10/4 17/8/4
f 11/9/5 10/11/5 19/12/5 18/10/5
f 10/11/6 9/13/6 20/14/6 19/12/6
f 9/13/7 8/15/7 21/16/7 20/14/7
f 27/17/8 28/18/8 29/19/8 30/20/8
f 26/21/9 27/17/9 30/20/9 31/22/9
f 25/23/10 26/21/10 31/22/10 32/24/10
f 24/25/11 25/23/11 32/24/11 33/26/11
f 23/27/12 24/25/12 33/26/12 34/28/12
f 22/29/13 23/27/13 34/28/13 35/30/13
f 28/31/14 22/29/14 35/30/14 29/32/14
f 29/33/15 35/34/15 36/35/15 42/36/15
f 35/34/16 34/37/16 37/38/16 36/35/16
f 34/37/17 33/39/17 38/40/17 37/38/17
f 33/39/18 32/41/18 39/42/18 38/40/18
f 32/41/19 31/43/19 40/44/19 39/42/19
f 31/43/20 30/45/20 41/46/20 40/44/20
f 30/45/21 29/47/21 42/48/21 41/46/21
f 1/49/22 7/50/22 14/51/22 8/52/22
f 6/53/23 13/54/23 14/51/23 7/50/23
f 5/55/24 12/56/24 13/54/24 6/53/24
f 4/57/25 11/58/25 12/56/25 5/55/25
f 3/59/26 10/60/26 11/58/26 4/57/26
f 2/61/27 9/62/27 10/60/27 3/59/27
f 1/63/28 8/64/28 9/62/28 2/61/28
f 10/65/29 11/66/29 43/67/29 44/68/29
f 8/69/30 9/70/30 45/71/30 46/72/30
f 12/73/31 13/74/31 49/75/31 48/76/31
f 17/77/32 18/78/32 25/79/32 24/80/32
f 18/78/33 19/81/33 26/82/33 25/79/33
f 16/83/34 17/77/34 24/80/34 23/84/34
f 15/85/35 16/83/35 23/84/35 22/86/35
f 15/85/36 22/86/36 28/87/36 21/88/36
f 20/89/37 21/90/37 28/91/37 27/92/37
f 19/81/38 20/89/38 27/92/38 26/82/38
f 17/93/39 18/94/39 52/95/39 51/96/39
f 23/97/40 24/98/40 60/99/40 61/100/40
f 27/101/41 28/102/41 59/103/41 58/104/41
f 25/105/42 26/106/42 56/107/42 57/108/42
f 30/109/43 31/110/43 65/111/43 66/112/43
f 34/113/44 35/114/44 68/115/44 69/116/44
f 32/117/45 33/118/45 63/119/45 64/120/45
f 40/121/46 41/122/46 73/123/46 72/124/46
f 36/125/47 37/126/47 76/127/47 75/128/47
f 38/129/48 39/130/48 71/131/48 70/132/48
f 36/133/49 37/134/49 77/135/49
f 37/134/50 38/136/50 77/135/50
f 39/137/51 40/138/51 77/135/51
f 40/138/52 41/139/52 77/135/52
f 41/139/53 42/140/53 77/135/53
f 36/133/54 77/135/54 42/141/54
f 38/136/55 39/137/55 77/135/55
f 39/130/56 40/121/56 72/124/56 71/131/56
f 41/122/57 42/142/57 74/143/57 73/123/57
f 36/125/58 75/128/58 74/143/58 42/142/58
f 37/126/59 38/129/59 70/132/59 76/127/59
f 33/118/60 34/113/60 69/116/60 63/119/60
f 31/110/61 32/117/61 64/120/61 65/111/61
f 29/144/62 67/145/62 68/115/62 35/114/62
f 29/144/63 30/109/63 66/112/63 67/145/63
f 24/98/64 25/105/64 57/108/64 60/99/64
f 22/146/65 23/97/65 61/100/65 62/147/65
f 26/106/66 27/101/66 58/104/66 56/107/66
f 22/146/67 62/147/67 59/103/67 28/102/67
f 18/94/68 19/148/68 53/149/68 52/95/68
f 19/148/69 20/150/69 54/151/69 53/149/69
f 15/152/70 16/153/70 50/154/70 55/155/70
f 16/153/71 17/93/71 51/96/71 50/154/71
f 20/150/72 21/156/72 78/157/72 54/151/72
f 15/152/73 55/155/73 78/157/73 21/156/73
f 8/69/74 46/72/74 47/158/74 14/159/74
f 13/74/75 14/159/75 47/158/75 49/75/75
f 9/70/76 10/65/76 44/68/76 45/71/76
f 11/66/77 12/73/77 48/76/77 43/67/77
