# Blender v2.63 (sub 0) OBJ File: 'tour_archer_age1.blend'
# www.blender.org
mtllib tour_archer_age1.mtl
o Plane_Plane.001
v 0.500000 0.000000 -0.500000
v 0.500000 0.000000 0.500000
v -0.500000 0.000000 0.500000
v -0.500000 0.000000 -0.500000
v -0.500000 2.900000 -0.500000
v -0.500000 2.900000 0.500000
v 0.500000 2.900000 0.500000
v 0.500000 2.900000 -0.500000
v 1.000000 2.900000 -1.000000
v 1.000000 2.900000 1.000000
v -1.000000 2.900000 1.000000
v -1.000000 2.900000 -1.000000
v -1.000000 3.700000 -1.000000
v -1.000000 3.700000 1.000000
v 1.000000 3.700000 1.000000
v 1.000000 3.700000 -1.000000
v 0.490000 3.800000 -0.490000
v 0.490000 3.800000 0.490000
v -0.490000 3.800000 0.490000
v -0.490000 3.800000 -0.490000
v -0.490000 4.600000 -0.490000
v -0.490000 4.600000 0.490000
v 0.490000 4.600000 0.490000
v 0.490000 4.600000 -0.490000
v 0.539000 4.550358 -0.539000
v 0.539000 4.550358 0.539000
v -0.539000 4.550358 0.539000
v -0.539000 4.550358 -0.539000
v -0.646800 4.600000 -0.646800
v -0.646800 4.600000 0.646800
v 0.646800 4.600000 0.646800
v 0.646800 4.600000 -0.646800
v 0.000000 5.600000 -0.000000
v -0.560000 2.900000 0.460000
v -0.460000 2.900000 0.460000
v -0.460000 -0.000000 0.460000
v -0.560000 0.000000 0.460000
v -0.560000 0.000000 0.560000
v -0.460000 -0.000000 0.560000
v -0.460000 2.900000 0.560000
v -0.560000 2.900000 0.560000
v -0.560000 2.900000 -0.460000
v -0.460000 2.900000 -0.460000
v -0.460000 -0.000000 -0.460000
v -0.560000 0.000000 -0.460000
v -0.560000 0.000000 -0.560000
v -0.460000 -0.000000 -0.560000
v -0.460000 2.900000 -0.560000
v -0.560000 2.900000 -0.560000
v 0.460000 2.900000 -0.560000
v 0.560000 2.900000 -0.560000
v 0.560000 -0.000000 -0.560000
v 0.460000 0.000000 -0.560000
v 0.460000 0.000000 -0.460000
v 0.560000 -0.000000 -0.460000
v 0.560000 2.900000 -0.460000
v 0.460000 2.900000 -0.460000
v 0.460000 2.900000 0.560000
v 0.560000 2.900000 0.560000
v 0.560000 -0.000000 0.560000
v 0.460000 0.000000 0.560000
v 0.460000 0.000000 0.460000
v 0.560000 -0.000000 0.460000
v 0.560000 2.900000 0.460000
v 0.460000 2.900000 0.460000
v -0.460000 1.000000 0.460000
v -0.460000 1.100000 0.460000
v -0.460000 1.100000 0.560000
v -0.460000 1.000000 0.560000
v 0.460000 1.000000 0.560000
v 0.460000 1.100000 0.560000
v -0.460000 1.100000 -0.460000
v -0.460000 1.000000 -0.460000
v -0.560000 1.100000 0.460000
v -0.560000 1.000000 0.460000
v -0.560000 1.000000 -0.460000
v -0.560000 1.100000 -0.460000
v 0.460000 1.100000 -0.460000
v 0.460000 1.000000 -0.460000
v 0.460000 1.000000 0.460000
v 0.460000 1.100000 0.460000
v 0.560000 1.100000 0.460000
v 0.560000 1.000000 0.460000
v 0.560000 1.000000 -0.460000
v 0.560000 1.100000 -0.460000
v -0.460000 1.100000 -0.560000
v -0.460000 1.000000 -0.560000
v 0.460000 1.000000 -0.560000
v 0.460000 1.100000 -0.560000
v -0.460000 2.300000 -0.460000
v 0.460000 2.300000 -0.460000
v 0.460000 2.300000 -0.560000
v -0.460000 2.200000 -0.560000
v -0.460000 2.300000 -0.560000
v -0.460000 2.200000 0.460000
v 0.460000 2.300000 0.460000
v 0.460000 2.300000 0.560000
v -0.460000 2.200000 0.560000
v 0.460000 2.200000 -0.460000
v 0.460000 2.200000 0.460000
v 0.560000 2.300000 0.460000
v 0.560000 2.200000 -0.460000
v -0.460000 2.200000 -0.460000
v -0.460000 2.300000 0.460000
v -0.560000 2.300000 0.460000
v -0.560000 2.200000 -0.460000
v -0.560000 2.300000 -0.460000
v 0.560000 2.300000 0.560000
v 0.560000 2.200000 0.560000
v 1.000000 2.900000 0.560000
v 0.930000 2.900000 0.560000
v 0.930000 2.900000 0.460000
v 1.000000 2.900000 0.460000
v 0.560000 2.200000 0.460000
v 0.560000 2.300000 -0.560000
v 0.560000 2.200000 -0.560000
v 1.000000 2.900000 -0.560000
v 0.930000 2.900000 -0.560000
v 0.930000 2.900000 -0.460000
v 1.000000 2.900000 -0.460000
v 0.560000 2.300000 -0.460000
v -0.560000 2.200000 -0.560000
v -1.000000 2.900000 -0.560000
v -0.930000 2.900000 -0.560000
v -0.930000 2.900000 -0.460000
v -1.000000 2.900000 -0.460000
v -1.000000 2.900000 0.560000
v -0.930000 2.900000 0.560000
v -0.930000 2.900000 0.460000
v -1.000000 2.900000 0.460000
v -0.560000 2.200000 0.460000
v -0.560000 2.300000 0.560000
v -0.560000 2.200000 0.560000
v -0.560000 2.900000 1.000000
v -0.560000 2.900000 0.930000
v -0.460000 2.900000 0.930000
v -0.460000 2.900000 1.000000
v -0.460000 2.300000 0.560000
v 0.560000 2.900000 1.000000
v 0.560000 2.900000 0.930000
v 0.460000 2.900000 0.930000
v 0.460000 2.900000 1.000000
v 0.460000 2.200000 0.560000
v 0.560000 2.900000 -1.000000
v 0.560000 2.900000 -0.930000
v 0.460000 2.900000 -0.930000
v 0.460000 2.900000 -1.000000
v 0.460000 2.200000 -0.560000
v -0.560000 2.300000 -0.560000
v -0.560000 2.900000 -1.000000
v -0.560000 2.900000 -0.930000
v -0.460000 2.900000 -0.930000
v -0.460000 2.900000 -1.000000
v 0.608214 0.000000 0.608214
v -0.608214 0.000000 0.608214
v 0.608214 0.000000 -0.608214
v -0.608214 0.000000 -0.608214
vt 0.605677 0.970943
vt 0.608369 0.970943
vt 0.608369 0.973636
vt 0.605677 0.973636
vt 0.326871 0.006477
vt 0.326872 0.464886
vt 0.168799 0.464886
vt 0.168799 0.006477
vt 0.010727 0.464886
vt 0.010726 0.006477
vt 0.643016 0.006477
vt 0.643016 0.464885
vt 0.484944 0.464886
vt 0.484943 0.006477
vt 0.852080 0.729715
vt 0.805408 0.776387
vt 0.805408 0.589700
vt 0.852080 0.636371
vt 0.945424 0.729715
vt 0.992096 0.776387
vt 0.945424 0.636371
vt 0.992096 0.589700
vt 0.015126 0.582806
vt 0.015126 0.488545
vt 0.250778 0.488545
vt 0.250778 0.582807
vt 0.486431 0.488545
vt 0.486431 0.582807
vt 0.722084 0.488545
vt 0.722084 0.582806
vt 0.957737 0.488545
vt 0.957737 0.582806
vt 0.017924 0.988530
vt 0.113312 0.892558
vt 0.293283 0.893086
vt 0.389278 0.988456
vt 0.017725 0.617200
vt 0.113719 0.712571
vt 0.389078 0.617126
vt 0.293690 0.713099
vt 0.895618 0.009878
vt 0.991626 0.009878
vt 0.991626 0.127487
vt 0.895618 0.127487
vt 0.991626 0.245096
vt 0.895618 0.245096
vt 0.991626 0.362705
vt 0.895618 0.362705
vt 0.991626 0.480314
vt 0.895619 0.480314
vt 0.606120 0.973221
vt 0.605869 0.973494
vt 0.605869 0.971242
vt 0.606140 0.971491
vt 0.607849 0.973220
vt 0.608121 0.973469
vt 0.607870 0.971491
vt 0.608121 0.971217
vt 0.663164 0.601190
vt 0.650276 0.588800
vt 0.758687 0.589155
vt 0.746300 0.601767
vt 0.761311 0.698509
vt 0.748400 0.685844
vt 0.650653 0.698509
vt 0.663105 0.685558
vt 0.415666 0.785895
vt 0.596321 0.903157
vt 0.399604 0.990845
vt 0.596321 0.687782
vt 0.776976 0.785895
vt 0.793037 0.990845
vt 0.956707 0.854175
vt 0.938658 0.852312
vt 0.937675 0.991882
vt 0.955724 0.993745
vt 0.606940 0.972134
vt 0.606955 0.972403
vt 0.607224 0.972389
vt 0.607209 0.972120
vt 0.920609 0.850448
vt 0.919626 0.990018
vt 0.606948 0.973379
vt 0.606680 0.973393
vt 0.606665 0.973124
vt 0.606934 0.973110
vt 0.973773 0.995608
vt 0.974756 0.856038
vt 0.992010 0.994625
vt 0.992992 0.855055
vt 0.144184 0.870662
vt 0.144184 0.731410
vt 0.162205 0.733142
vt 0.162205 0.872395
vt 0.180392 0.871285
vt 0.180392 0.732032
vt 0.608020 0.970955
vt 0.608036 0.971223
vt 0.608305 0.971207
vt 0.608289 0.970938
vt 0.125997 0.732519
vt 0.125997 0.871772
vt 0.606158 0.972369
vt 0.606141 0.972100
vt 0.606410 0.972084
vt 0.606426 0.972353
vt 0.198579 0.730923
vt 0.198579 0.870176
vt 0.209272 0.731922
vt 0.227466 0.730941
vt 0.226485 0.870190
vt 0.208291 0.871171
vt 0.607049 0.972224
vt 0.607035 0.971955
vt 0.607304 0.971941
vt 0.607318 0.972210
vt 0.245660 0.729960
vt 0.244679 0.869209
vt 0.606546 0.972515
vt 0.606532 0.972246
vt 0.606263 0.972261
vt 0.606277 0.972530
vt 0.280881 0.870087
vt 0.262687 0.871068
vt 0.263668 0.731819
vt 0.281863 0.730838
vt 0.895078 0.988601
vt 0.895078 0.849348
vt 0.913098 0.851081
vt 0.913098 0.990333
vt 0.858704 0.990820
vt 0.840517 0.991929
vt 0.840517 0.852676
vt 0.858704 0.851567
vt 0.605667 0.973155
vt 0.605935 0.973181
vt 0.605961 0.972913
vt 0.605693 0.972887
vt 0.876891 0.850458
vt 0.876891 0.989711
vt 0.606976 0.971363
vt 0.606950 0.971631
vt 0.606682 0.971605
vt 0.606708 0.971337
vt 0.649738 0.041660
vt 0.769142 0.041660
vt 0.768788 0.057329
vt 0.649384 0.057329
vt 0.606674 0.972780
vt 0.606943 0.972787
vt 0.606937 0.973056
vt 0.606668 0.973050
vt 0.649030 0.072998
vt 0.768434 0.072998
vt 0.606422 0.972126
vt 0.606691 0.972132
vt 0.606685 0.972401
vt 0.606416 0.972395
vt 0.768818 0.025983
vt 0.649414 0.025983
vt 0.768494 0.010306
vt 0.649090 0.010306
vt 0.891607 0.154595
vt 0.891321 0.138919
vt 0.771924 0.138632
vt 0.772211 0.154309
vt 0.891712 0.123251
vt 0.772316 0.122965
vt 0.606842 0.973110
vt 0.607111 0.973105
vt 0.607106 0.972836
vt 0.606837 0.972841
vt 0.772498 0.169986
vt 0.891894 0.170272
vt 0.606574 0.972354
vt 0.606843 0.972349
vt 0.606838 0.972080
vt 0.606569 0.972085
vt 0.772030 0.107288
vt 0.891425 0.107575
vt 0.648457 0.111500
vt 0.767853 0.111787
vt 0.767567 0.096110
vt 0.648171 0.095823
vt 0.606832 0.972168
vt 0.607101 0.972163
vt 0.607096 0.971893
vt 0.606827 0.971898
vt 0.647884 0.080147
vt 0.767280 0.080433
vt 0.606509 0.972144
vt 0.606778 0.972139
vt 0.606773 0.971870
vt 0.606504 0.971875
vt 0.768140 0.127464
vt 0.648744 0.127177
vt 0.767748 0.143131
vt 0.648352 0.142844
vt 0.772237 0.239622
vt 0.891641 0.239622
vt 0.891317 0.223945
vt 0.771913 0.223945
vt 0.771589 0.208268
vt 0.890992 0.208268
vt 0.606211 0.971840
vt 0.605942 0.971834
vt 0.605948 0.971565
vt 0.606218 0.971571
vt 0.891347 0.192598
vt 0.891701 0.176929
vt 0.772297 0.176929
vt 0.771943 0.192598
vt 0.606810 0.972580
vt 0.606541 0.972574
vt 0.606547 0.972304
vt 0.606816 0.972310
vt 0.767080 0.249873
vt 0.647676 0.249897
vt 0.648003 0.265574
vt 0.767407 0.265550
vt 0.607455 0.972504
vt 0.607186 0.972498
vt 0.607180 0.972767
vt 0.607449 0.972773
vt 0.767056 0.281219
vt 0.647652 0.281243
vt 0.607183 0.971349
vt 0.606914 0.971344
vt 0.606907 0.971613
vt 0.607177 0.971619
vt 0.648027 0.234228
vt 0.767431 0.234204
vt 0.647699 0.218551
vt 0.767103 0.218527
vt 0.648576 0.303479
vt 0.648184 0.319147
vt 0.767588 0.319434
vt 0.767980 0.303766
vt 0.647793 0.334815
vt 0.767196 0.335102
vt 0.607693 0.972188
vt 0.607424 0.972192
vt 0.607429 0.972462
vt 0.607698 0.972457
vt 0.767693 0.288088
vt 0.648289 0.287801
vt 0.606943 0.973323
vt 0.606673 0.973328
vt 0.606678 0.973597
vt 0.606948 0.973592
vt 0.767483 0.350780
vt 0.648079 0.350493
vt 0.647636 0.180662
vt 0.767047 0.180948
vt 0.767439 0.165279
vt 0.648028 0.164993
vt 0.607118 0.972635
vt 0.607387 0.972630
vt 0.607382 0.972361
vt 0.607113 0.972366
vt 0.647741 0.149314
vt 0.767152 0.149600
vt 0.607139 0.972645
vt 0.607408 0.972640
vt 0.607403 0.972371
vt 0.607134 0.972376
vt 0.766655 0.196617
vt 0.647244 0.196331
vt 0.766264 0.212286
vt 0.646853 0.212001
vt 0.889829 0.087076
vt 0.890221 0.071408
vt 0.770817 0.071122
vt 0.770426 0.086791
vt 0.890612 0.055740
vt 0.771209 0.055454
vt 0.607473 0.971656
vt 0.607742 0.971651
vt 0.607737 0.971382
vt 0.607468 0.971387
vt 0.770712 0.102468
vt 0.890116 0.102754
vt 0.606911 0.972463
vt 0.607180 0.972458
vt 0.607175 0.972189
vt 0.606906 0.972194
vt 0.770922 0.039776
vt 0.890326 0.040062
vt 0.789469 0.480398
vt 0.779538 0.477048
vt 0.779536 0.404965
vt 0.790630 0.387796
vt 0.607294 0.972747
vt 0.607294 0.972558
vt 0.607024 0.972558
vt 0.607024 0.972747
vt 0.769312 0.477048
vt 0.769310 0.404965
vt 0.607222 0.972124
vt 0.607222 0.971855
vt 0.606953 0.971855
vt 0.606953 0.972124
vt 0.802806 0.387826
vt 0.801646 0.480428
vt 0.813558 0.397944
vt 0.812926 0.474421
vt 0.852899 0.399933
vt 0.852899 0.475464
vt 0.841808 0.481488
vt 0.842198 0.390029
vt 0.830175 0.389851
vt 0.829785 0.481310
vt 0.606973 0.972535
vt 0.606973 0.972266
vt 0.606704 0.972266
vt 0.606704 0.972535
vt 0.863614 0.475463
vt 0.863614 0.399933
vt 0.608473 0.973064
vt 0.608473 0.972875
vt 0.608204 0.972875
vt 0.608204 0.973064
vt 0.819950 0.478082
vt 0.819360 0.406896
vt 0.613646 0.683973
vt 0.603715 0.680622
vt 0.603715 0.608538
vt 0.614810 0.591370
vt 0.606667 0.972629
vt 0.606667 0.972441
vt 0.606398 0.972441
vt 0.606398 0.972629
vt 0.593489 0.680622
vt 0.593489 0.608538
vt 0.607098 0.972771
vt 0.607098 0.972502
vt 0.606828 0.972502
vt 0.606828 0.972771
vt 0.626982 0.591651
vt 0.625818 0.684254
vt 0.637734 0.601769
vt 0.637099 0.678248
vt 0.758483 0.400556
vt 0.757848 0.477033
vt 0.746568 0.483040
vt 0.747732 0.390437
vt 0.735555 0.390408
vt 0.734391 0.483010
vt 0.606865 0.973142
vt 0.606865 0.972873
vt 0.606595 0.972873
vt 0.606595 0.973142
vt 0.724460 0.479659
vt 0.714234 0.479659
vt 0.714234 0.407575
vt 0.724460 0.407575
vt 0.606998 0.973535
vt 0.606998 0.973347
vt 0.606729 0.973347
vt 0.606729 0.973535
vt 0.418172 0.613774
vt 0.406757 0.619852
vt 0.406115 0.697241
vt 0.416994 0.707480
vt 0.607489 0.971773
vt 0.607677 0.971773
vt 0.607677 0.972042
vt 0.607489 0.972042
vt 0.450887 0.617449
vt 0.440539 0.617449
vt 0.440539 0.690392
vt 0.450886 0.690392
vt 0.606958 0.972690
vt 0.607228 0.972690
vt 0.607228 0.972959
vt 0.606958 0.972959
vt 0.429312 0.707765
vt 0.430489 0.614059
vt 0.693954 0.402840
vt 0.693954 0.478369
vt 0.682863 0.484394
vt 0.683253 0.392935
vt 0.671228 0.393006
vt 0.670838 0.484464
vt 0.608268 0.971996
vt 0.608268 0.971727
vt 0.607999 0.971727
vt 0.607999 0.971996
vt 0.704668 0.478369
vt 0.704668 0.402840
vt 0.607313 0.972048
vt 0.607313 0.971860
vt 0.607044 0.971860
vt 0.607044 0.972048
vt 0.661003 0.481236
vt 0.660412 0.410051
vt 0.542116 0.694029
vt 0.532066 0.690639
vt 0.532066 0.617696
vt 0.543293 0.600324
vt 0.606897 0.971825
vt 0.606709 0.971825
vt 0.606709 0.972094
vt 0.606897 0.972094
vt 0.521719 0.690639
vt 0.521718 0.617696
vt 0.606711 0.972003
vt 0.606441 0.972003
vt 0.606441 0.972272
vt 0.606711 0.972272
vt 0.555610 0.600608
vt 0.554433 0.694314
vt 0.566490 0.610847
vt 0.565848 0.688236
vt 0.507842 0.614487
vt 0.507200 0.691876
vt 0.495785 0.697954
vt 0.496962 0.604248
vt 0.484645 0.603963
vt 0.483468 0.697669
vt 0.607500 0.972260
vt 0.607231 0.972260
vt 0.607231 0.972529
vt 0.607500 0.972529
vt 0.473418 0.694279
vt 0.463071 0.694279
vt 0.463070 0.621336
vt 0.473418 0.621336
vt 0.607232 0.972091
vt 0.607043 0.972091
vt 0.607043 0.972360
vt 0.607232 0.972360
vt 0.757444 0.694163
vt 0.651930 0.694163
vt 0.651930 0.588649
vt 0.757444 0.588649
vn 0.000000 1.000000 0.000000
vn -1.000000 0.000000 -0.000000
vn 0.000000 0.000000 -1.000000
vn 1.000000 0.000000 0.000000
vn -0.000000 0.000000 1.000000
vn 0.000000 -1.000000 0.000000
vn -0.000000 0.981314 0.192415
vn 0.192415 0.981314 0.000000
vn 0.000000 0.981314 -0.192415
vn -0.192415 0.981314 -0.000000
vn 0.000000 -0.702486 -0.711698
vn -0.711698 -0.702486 0.000000
vn -0.000000 -0.702486 0.711698
vn 0.711698 -0.702486 0.000000
vn -0.418285 -0.908316 -0.000000
vn 0.000000 -0.908316 -0.418285
vn 0.418285 -0.908316 0.000000
vn -0.000000 -0.908316 0.418285
vn -0.000000 0.543098 0.839669
vn 0.839669 0.543098 0.000000
vn 0.000000 0.543098 -0.839669
vn -0.839669 0.543098 -0.000000
vn -0.000001 -1.000000 0.000000
vn -0.000000 1.000000 -0.000001
vn -1.000000 0.000000 -0.000001
vn 0.000000 -1.000000 0.000001
vn 0.000002 -0.000000 -1.000000
vn -1.000000 0.000001 0.000000
vn 1.000000 -0.000001 -0.000000
vn 1.000000 0.000000 0.000001
vn -1.000000 0.000001 -0.000001
vn -1.000000 -0.000000 -0.000002
vn 0.000001 1.000000 -0.000000
vn -0.000000 -0.000001 -1.000000
vn 0.000000 0.000001 1.000000
vn 0.000000 1.000000 -0.000002
vn 0.000000 0.000002 1.000000
vn 0.000001 -0.000001 -1.000000
vn -0.000002 1.000000 0.000000
vn 1.000000 -0.000003 -0.000000
vn -1.000000 0.000002 0.000000
vn 0.000001 -0.000001 1.000000
vn 0.000000 1.000000 0.000001
vn 0.000001 -0.000000 -1.000000
vn -0.000001 0.000001 1.000000
vn -0.851171 0.524889 -0.000001
vn 1.000000 -0.000001 -0.000001
vn 0.846636 -0.532172 -0.000001
vn 0.846636 -0.532172 0.000001
vn 1.000000 -0.000002 -0.000001
vn -0.851171 0.524889 0.000001
vn 0.000003 0.000002 -1.000000
vn 0.851171 0.524889 0.000002
vn -1.000000 0.000002 -0.000002
vn -0.846637 -0.532171 -0.000001
vn 0.000001 0.000001 1.000000
vn -0.846637 -0.532171 -0.000000
vn 0.851171 0.524889 -0.000001
vn 0.000001 0.000001 -1.000000
vn -1.000000 0.000001 -0.000002
vn -0.000000 0.524889 -0.851171
vn 0.000001 -0.532172 0.846636
vn 0.000001 -0.532172 0.846637
vn -0.000000 0.000003 1.000000
vn 1.000000 0.000001 0.000002
vn -0.000003 0.524889 0.851171
vn 0.000001 -0.532172 -0.846636
vn -1.000000 -0.000001 -0.000001
vn -1.000000 0.000002 0.000003
vn 0.000002 -0.532172 -0.846636
vn 0.000000 0.524889 0.851171
usemtl _tour_archer_age1.png
s off
f 1/1/1 4/2/1 3/3/1 2/4/1
f 3/5/2 6/6/2 5/7/2 4/8/2
f 8/9/3 1/10/3 4/8/3 5/7/3
f 1/11/4 8/12/4 7/13/4 2/14/4
f 2/14/5 7/13/5 6/6/5 3/5/5
f 7/15/6 10/16/6 11/17/6 6/18/6
f 8/19/6 9/20/6 10/16/6 7/15/6
f 5/21/6 12/22/6 9/20/6 8/19/6
f 6/18/6 11/17/6 12/22/6 5/21/6
f 11/23/2 14/24/2 13/25/2 12/26/2
f 12/26/3 13/25/3 16/27/3 9/28/3
f 9/28/4 16/27/4 15/29/4 10/30/4
f 10/30/5 15/29/5 14/31/5 11/32/5
f 15/33/7 18/34/7 19/35/7 14/36/7
f 16/37/8 17/38/8 18/34/8 15/33/8
f 13/39/9 20/40/9 17/38/9 16/37/9
f 14/36/10 19/35/10 20/40/10 13/39/10
f 19/41/2 22/42/2 21/43/2 20/44/2
f 20/44/3 21/43/3 24/45/3 17/46/3
f 17/46/4 24/45/4 23/47/4 18/48/4
f 18/48/5 23/47/5 22/49/5 19/50/5
f 23/51/11 26/52/11 27/53/11 22/54/11
f 24/55/12 25/56/12 26/52/12 23/51/12
f 21/57/13 28/58/13 25/56/13 24/55/13
f 22/54/14 27/53/14 28/58/14 21/57/14
f 27/59/15 30/60/15 29/61/15 28/62/15
f 28/62/16 29/61/16 32/63/16 25/64/16
f 25/64/17 32/63/17 31/65/17 26/66/17
f 26/66/18 31/65/18 30/60/18 27/59/18
f 31/67/19 33/68/19 30/69/19
f 32/70/20 33/68/20 31/67/20
f 29/71/21 33/68/21 32/70/21
f 30/72/22 33/68/22 29/71/22
f 36/73/3 37/74/3 34/75/3 35/76/3
f 36/77/23 39/78/23 38/79/23 37/80/23
f 37/74/2 38/81/2 41/82/2 34/75/2
f 34/83/6 35/84/6 40/85/6 41/86/6
f 35/76/4 40/87/4 39/88/4 36/73/4
f 41/89/5 38/90/5 39/88/5 40/87/5
f 42/91/5 45/92/5 44/93/5 43/94/5
f 48/95/4 43/94/4 44/93/4 47/96/4
f 49/97/6 48/98/6 43/99/6 42/100/6
f 46/101/2 45/92/2 42/91/2 49/102/2
f 47/103/23 44/104/23 45/105/23 46/106/23
f 47/96/3 46/107/3 49/108/3 48/95/3
f 52/109/3 53/110/3 50/111/3 51/112/3
f 52/113/23 55/114/23 54/115/23 53/116/23
f 53/110/2 54/117/2 57/118/2 50/111/2
f 50/119/6 51/120/6 56/121/6 57/122/6
f 51/123/4 56/124/4 55/125/4 52/126/4
f 57/118/5 54/117/5 55/125/5 56/124/5
f 58/127/5 61/128/5 60/129/5 59/130/5
f 64/131/4 59/132/4 60/133/4 63/134/4
f 65/135/6 64/136/6 59/137/6 58/138/6
f 62/139/2 61/128/2 58/127/2 65/140/2
f 63/141/23 60/142/23 61/143/23 62/144/23
f 63/134/3 62/139/3 65/140/3 64/131/3
f 66/145/5 80/146/5 81/147/5 67/148/5
f 66/149/4 67/150/4 68/151/4 69/152/4
f 67/148/24 68/153/24 71/154/24 81/147/24
f 81/155/25 80/156/25 70/157/25 71/158/25
f 80/146/26 70/159/26 69/160/26 66/145/26
f 71/161/5 68/162/5 69/160/5 70/159/5
f 72/163/2 73/164/2 66/165/2 67/166/2
f 76/167/6 73/164/6 66/165/6 75/168/6
f 77/169/5 76/170/5 73/171/5 72/172/5
f 74/173/1 67/166/1 72/163/1 77/174/1
f 75/175/27 74/176/27 67/177/27 66/178/27
f 75/168/28 74/179/28 77/180/28 76/167/28
f 80/181/29 79/182/29 78/183/29 81/184/29
f 80/185/3 81/186/3 82/187/3 83/188/3
f 81/184/1 82/189/1 85/190/1 78/183/1
f 78/191/5 79/192/5 84/193/5 85/194/5
f 79/182/6 84/195/6 83/196/6 80/181/6
f 85/197/4 82/198/4 83/196/4 84/195/4
f 86/199/3 89/200/3 88/201/3 87/202/3
f 73/203/26 87/202/26 88/201/26 79/204/26
f 72/205/30 73/206/30 87/207/30 86/208/30
f 78/209/24 89/210/24 86/211/24 72/212/24
f 79/213/31 78/214/31 89/215/31 88/216/31
f 79/204/3 73/203/3 72/212/3 78/209/3
f 99/217/3 103/218/3 90/219/3 91/220/3
f 99/221/32 91/222/32 92/223/32 148/224/32
f 91/220/33 92/225/33 94/226/33 90/219/33
f 90/227/29 103/228/29 93/229/29 94/230/29
f 103/218/6 93/231/6 148/232/6 99/217/6
f 94/233/34 92/234/34 148/232/34 93/231/34
f 104/235/35 95/236/35 100/237/35 96/238/35
f 98/239/6 95/236/6 100/237/6 143/240/6
f 138/241/29 98/242/29 95/243/29 104/244/29
f 97/245/36 96/238/36 104/235/36 138/246/36
f 143/247/25 97/248/25 96/249/25 100/250/25
f 143/240/37 97/251/37 138/252/37 98/239/37
f 100/253/4 99/254/4 91/255/4 96/256/4
f 100/257/38 96/258/38 101/259/38 114/260/38
f 96/256/39 101/261/39 121/262/39 91/255/39
f 91/263/5 99/264/5 102/265/5 121/266/5
f 99/254/6 102/267/6 114/268/6 100/253/6
f 121/269/40 101/270/40 114/268/40 102/267/40
f 90/271/41 103/272/41 95/273/41 104/274/41
f 106/275/6 103/272/6 95/273/6 131/276/6
f 107/277/42 106/278/42 103/279/42 90/280/42
f 105/281/43 104/274/43 90/271/43 107/282/43
f 131/283/44 105/284/44 104/285/44 95/286/44
f 131/276/41 105/287/41 107/288/41 106/275/41
f 110/289/45 111/290/45 108/291/45 109/292/45
f 110/293/6 111/294/6 112/295/6 113/296/6
f 111/290/46 112/297/46 101/298/46 108/291/46
f 108/299/47 109/300/47 114/301/47 101/302/47
f 109/292/48 114/303/48 113/304/48 110/289/48
f 101/305/38 112/306/38 113/304/38 114/303/38
f 115/307/3 118/308/3 117/309/3 116/310/3
f 102/311/49 116/310/49 117/309/49 120/312/49
f 121/313/50 102/314/50 116/315/50 115/316/50
f 119/317/51 118/308/51 115/307/51 121/318/51
f 120/319/6 119/320/6 118/321/6 117/322/6
f 120/312/42 119/323/42 121/324/42 102/311/42
f 123/325/52 124/326/52 149/327/52 122/328/52
f 123/329/6 124/330/6 125/331/6 126/332/6
f 124/326/53 125/333/53 107/334/53 149/327/53
f 149/335/54 122/336/54 106/337/54 107/338/54
f 122/328/55 106/339/55 126/340/55 123/325/55
f 107/341/5 125/342/5 126/340/5 106/339/5
f 132/343/56 128/344/56 127/345/56 133/346/56
f 131/347/57 133/346/57 127/345/57 130/348/57
f 105/349/41 131/350/41 133/351/41 132/352/41
f 129/353/58 128/354/58 132/355/58 105/356/58
f 130/357/6 129/358/6 128/359/6 127/360/6
f 130/348/59 129/353/59 105/356/59 131/347/59
f 134/361/60 135/362/60 132/363/60 133/364/60
f 134/365/6 135/366/6 136/367/6 137/368/6
f 135/369/61 136/370/61 138/371/61 132/372/61
f 132/373/56 133/374/56 98/375/56 138/376/56
f 133/364/62 98/377/62 137/378/62 134/361/62
f 138/371/4 136/370/4 137/378/4 98/377/4
f 108/379/4 140/380/4 139/381/4 109/382/4
f 143/383/63 109/382/63 139/381/63 142/384/63
f 97/385/64 143/386/64 109/387/64 108/388/64
f 141/389/61 140/380/61 108/379/61 97/390/61
f 142/391/6 141/392/6 140/393/6 139/394/6
f 142/384/31 141/395/31 97/396/31 143/383/31
f 144/397/65 145/398/65 115/399/65 116/400/65
f 144/401/6 145/402/6 146/403/6 147/404/6
f 145/398/66 146/405/66 92/406/66 115/399/66
f 115/407/38 116/408/38 148/409/38 92/410/38
f 116/400/67 148/411/67 147/412/67 144/397/67
f 92/413/68 146/414/68 147/412/68 148/411/68
f 149/415/69 151/416/69 150/417/69 122/418/69
f 93/419/70 122/418/70 150/417/70 153/420/70
f 94/421/59 93/422/59 122/423/59 149/424/59
f 152/425/71 151/426/71 149/427/71 94/428/71
f 153/429/6 152/430/6 151/431/6 150/432/6
f 153/420/65 152/425/65 94/428/65 93/419/65
f 156/433/1 157/434/1 155/435/1 154/436/1
