# Blender v2.62 (sub 0) OBJ File: 'tour_archer.blend'
# www.blender.org
mtllib tour_archer.mtl
o Circle_Circle.001
v 0.047145 0.047850 -1.911346
v 0.774997 0.047850 -1.747812
v 1.384863 0.047850 -1.318189
v 1.783895 0.047850 -0.687884
v 1.911346 0.047850 0.047146
v 1.747812 0.047850 0.774997
v 1.318189 0.047850 1.384863
v 0.687884 0.047850 1.783895
v -0.047145 0.047850 1.911346
v -0.774997 0.047850 1.747812
v -1.384862 0.047850 1.318190
v -1.783895 0.047850 0.687884
v -1.911346 0.047850 -0.047145
v -1.747812 0.047850 -0.774998
v -1.318189 0.047850 -1.384863
v -0.687883 0.047850 -1.783896
v -0.609665 1.967806 -1.581052
v -1.168299 1.967806 -1.227393
v -1.549071 1.967806 -0.686874
v -1.694010 1.967806 -0.041785
v -1.581051 1.967806 0.609666
v -1.227392 1.967806 1.168300
v -0.686873 1.967806 1.549071
v -0.041784 1.967806 1.694010
v 0.609666 1.967806 1.581051
v 1.168300 1.967806 1.227392
v 1.549071 1.967806 0.686874
v 1.694010 1.967806 0.041785
v 1.581051 1.967806 -0.609666
v 1.227392 1.967806 -1.168300
v 0.686874 1.967806 -1.549071
v 0.041785 1.967806 -1.694010
v 0.041785 6.447702 -1.694010
v 0.686874 6.447702 -1.549071
v 1.227392 6.447702 -1.168300
v 1.581051 6.447702 -0.609666
v 1.694010 6.447702 0.041785
v 1.549071 6.447702 0.686874
v 1.168300 6.447702 1.227392
v 0.609666 6.447702 1.581051
v -0.041784 6.447702 1.694010
v -0.686873 6.447702 1.549071
v -1.227392 6.447702 1.168300
v -1.581051 6.447702 0.609666
v -1.694010 6.447702 -0.041785
v -1.549071 6.447702 -0.686874
v -1.168299 6.447702 -1.227393
v -0.609665 6.447702 -1.581052
v -0.783692 6.447702 -2.032358
v -1.501787 6.447702 -1.577748
v -1.991248 6.447702 -0.882940
v -2.177560 6.447702 -0.053712
v -2.032357 6.447702 0.783693
v -1.577747 6.447702 1.501788
v -0.882939 6.447702 1.991249
v -0.053712 6.447702 2.177560
v 0.783693 6.447702 2.032358
v 1.501787 6.447702 1.577748
v 1.991249 6.447702 0.882940
v 2.177561 6.447702 0.053712
v 2.032358 6.447702 -0.783693
v 1.577748 6.447702 -1.501787
v 0.882940 6.447702 -1.991248
v 0.053712 6.447702 -2.177560
v 0.053712 7.648158 -2.177560
v 0.882940 7.648158 -1.991248
v 1.577748 7.648158 -1.501787
v 2.032358 7.648158 -0.783693
v 2.177561 7.648158 0.053712
v 1.991249 7.648158 0.882940
v 1.501787 7.648158 1.577748
v 0.783693 7.648158 2.032358
v -0.053712 7.648158 2.177560
v -0.882939 7.648158 1.991249
v -1.577747 7.648158 1.501788
v -2.032357 7.648158 0.783693
v -2.177560 7.648158 -0.053712
v -1.991248 7.648158 -0.882940
v -1.501787 7.648158 -1.577748
v -0.783692 7.648158 -2.032358
v -0.443546 8.833106 -1.150255
v -0.849967 8.833106 -0.892959
v -1.126988 8.833106 -0.499718
v -1.232435 8.833106 -0.030399
v -1.150254 8.833106 0.443547
v -0.892958 8.833106 0.849968
v -0.499717 8.833106 1.126988
v -0.030399 8.833106 1.232435
v 0.443547 8.833106 1.150254
v 0.849967 8.833106 0.892959
v 1.126988 8.833106 0.499718
v 1.232435 8.833106 0.030399
v 1.150254 8.833106 -0.443547
v 0.892959 8.833106 -0.849967
v 0.499718 8.833106 -1.126988
v 0.030399 8.833106 -1.232435
v 0.000000 11.493731 -0.000000
vt 0.688046 0.411682
vt 0.734500 0.405502
vt 0.715856 0.285561
vt 0.673760 0.289557
vt 0.641810 0.416384
vt 0.630708 0.292745
vt 0.595592 0.419713
vt 0.587293 0.295559
vt 0.549607 0.422070
vt 0.543538 0.297824
vt 0.503880 0.423674
vt 0.499575 0.299609
vt 0.455449 0.300438
vt 0.458218 0.425100
vt 0.412589 0.425593
vt 0.411251 0.301332
vt 0.367007 0.301272
vt 0.366980 0.426043
vt 0.321361 0.425592
vt 0.322765 0.301303
vt 0.278566 0.300376
vt 0.275713 0.425095
vt 0.230007 0.423659
vt 0.234443 0.299501
vt 0.190485 0.297658
vt 0.184222 0.422030
vt 0.138341 0.419333
vt 0.146730 0.295756
vt 0.103370 0.292889
vt 0.092346 0.416062
vt 0.046297 0.411434
vt 0.060463 0.289769
vt 0.018426 0.285797
vt 0.000000 0.405335
vt 0.072240 0.001677
vt 0.030291 0.000000
vt 0.114226 0.003268
vt 0.156277 0.004632
vt 0.198368 0.005856
vt 0.240501 0.006756
vt 0.282660 0.007491
vt 0.324838 0.007857
vt 0.367026 0.008047
vt 0.409215 0.007854
vt 0.451398 0.007485
vt 0.493563 0.006744
vt 0.535709 0.005837
vt 0.577804 0.004677
vt 0.619843 0.003291
vt 0.661821 0.001716
vt 0.703737 0.000000
vt 0.666943 0.543917
vt 0.666943 0.587075
vt 0.697910 0.593235
vt 0.697910 0.537757
vt 0.650427 0.504044
vt 0.676679 0.486502
vt 0.619909 0.473526
vt 0.637451 0.447274
vt 0.580036 0.457010
vt 0.586196 0.426043
vt 0.536878 0.457010
vt 0.530718 0.426043
vt 0.479463 0.447273
vt 0.497004 0.473526
vt 0.466487 0.504044
vt 0.440234 0.486502
vt 0.419004 0.537757
vt 0.449971 0.543917
vt 0.449970 0.587075
vt 0.419003 0.593235
vt 0.440234 0.644490
vt 0.466486 0.626949
vt 0.497004 0.657466
vt 0.479463 0.683719
vt 0.530718 0.704950
vt 0.536877 0.673983
vt 0.580036 0.673983
vt 0.586196 0.704950
vt 0.637451 0.683719
vt 0.619909 0.657466
vt 0.650427 0.626949
vt 0.676679 0.644490
vt 0.963691 0.756271
vt 0.963691 0.704986
vt 1.000000 0.704986
vt 1.000000 0.756271
vt 0.927383 0.756271
vt 0.927383 0.704986
vt 0.891074 0.756272
vt 0.891074 0.704986
vt 0.854765 0.756272
vt 0.854765 0.704986
vt 0.818455 0.756272
vt 0.818456 0.704985
vt 0.782144 0.756271
vt 0.782146 0.704984
vt 0.745833 0.756270
vt 0.745835 0.704982
vt 0.709521 0.756269
vt 0.709524 0.704979
vt 0.673208 0.756267
vt 0.673212 0.704976
vt 0.636895 0.756265
vt 0.636899 0.704972
vt 0.600580 0.756262
vt 0.600585 0.704969
vt 0.564265 0.756258
vt 0.564270 0.704965
vt 0.527950 0.756255
vt 0.527955 0.704961
vt 0.491634 0.756252
vt 0.491640 0.704957
vt 0.455319 0.756248
vt 0.455324 0.704953
vt 0.419003 0.756244
vt 0.419009 0.704950
vt 0.000060 0.467152
vt 0.000000 0.426043
vt 0.072791 0.434858
vt 0.074255 0.458435
vt 0.009090 0.506112
vt 0.080294 0.481919
vt 0.025454 0.541739
vt 0.090669 0.504257
vt 0.047771 0.573077
vt 0.104933 0.524622
vt 0.074967 0.599847
vt 0.123112 0.541828
vt 0.144021 0.555675
vt 0.106633 0.621632
vt 0.141571 0.637356
vt 0.166738 0.566364
vt 0.191172 0.572294
vt 0.178546 0.646961
vt 0.216556 0.649895
vt 0.216201 0.574717
vt 0.241201 0.572091
vt 0.254481 0.646452
vt 0.291660 0.636361
vt 0.265331 0.565255
vt 0.287808 0.554356
vt 0.326866 0.619572
vt 0.358333 0.596483
vt 0.308264 0.540162
vt 0.325191 0.522334
vt 0.385244 0.567618
vt 0.405868 0.533818
vt 0.338801 0.502111
vt 0.347695 0.480286
vt 0.419003 0.495148
vt 0.215324 0.426043
vn 0.169802 -0.110379 0.979277
vn 0.531630 -0.110379 0.839754
vn 0.812522 -0.110379 0.572385
vn 0.969715 -0.110379 0.217876
vn 0.979277 -0.110379 -0.169802
vn 0.839753 -0.110379 -0.531630
vn 0.572385 -0.110379 -0.812522
vn 0.217876 -0.110379 -0.969715
vn -0.169803 -0.110379 -0.979277
vn -0.531630 -0.110379 -0.839754
vn -0.812522 -0.110379 -0.572385
vn -0.969715 -0.110379 -0.217876
vn -0.979277 -0.110379 0.169802
vn -0.839754 -0.110379 0.531630
vn -0.572385 -0.110379 0.812522
vn -0.217876 -0.110379 0.969715
vn -0.219216 0.000000 0.975676
vn -0.575904 0.000000 0.817517
vn -0.844916 0.000000 0.534898
vn -0.985298 0.000000 0.170846
vn -0.975676 0.000000 -0.219216
vn -0.817517 0.000000 -0.575904
vn -0.534898 0.000000 -0.844916
vn -0.170846 0.000000 -0.985298
vn 0.219216 0.000000 -0.975676
vn 0.575904 0.000000 -0.817517
vn 0.844916 0.000000 -0.534899
vn 0.985298 0.000000 -0.170846
vn 0.975676 0.000000 0.219216
vn 0.817517 0.000000 0.575904
vn 0.534898 0.000000 0.844917
vn 0.170846 0.000000 0.985298
vn 0.000000 1.000000 -0.000000
vn -0.844916 0.000000 0.534899
vn -0.985298 0.000000 0.170847
vn -0.170847 0.000000 -0.985298
vn 0.575904 0.000000 -0.817518
vn 0.844917 0.000000 -0.534898
vn 0.134548 -0.616266 0.775960
vn 0.421253 -0.616266 0.665404
vn 0.643826 -0.616266 0.453547
vn 0.768383 -0.616266 0.172641
vn 0.775960 -0.616265 -0.134548
vn 0.665404 -0.616266 -0.421253
vn 0.453546 -0.616266 -0.643826
vn 0.172641 -0.616266 -0.768383
vn -0.134548 -0.616266 -0.775960
vn -0.421253 -0.616266 -0.665404
vn -0.643826 -0.616266 -0.453547
vn -0.768382 -0.616266 -0.172641
vn -0.775960 -0.616266 0.134548
vn -0.665404 -0.616266 0.421253
vn -0.453547 -0.616265 0.643826
vn -0.172641 -0.616266 0.768383
vn 0.155538 -0.413731 0.897014
vn -0.199574 -0.413731 0.888255
vn -0.524303 -0.413731 0.744267
vn -0.769211 -0.413731 0.486971
vn 0.199574 -0.413731 -0.888255
vn 0.524302 -0.413731 -0.744267
vn 0.769211 -0.413731 -0.486971
vn 0.897014 -0.413731 -0.155538
vn 0.888255 -0.413731 0.199574
vn 0.744267 -0.413731 0.524302
vn 0.486971 -0.413731 0.769211
vn -0.897014 -0.413731 0.155539
vn -0.888255 -0.413731 -0.199574
vn -0.744267 -0.413731 -0.524303
vn -0.486971 -0.413731 -0.769211
vn -0.155538 -0.413731 -0.897014
usemtl Material.001_tour_archer2.png
s off
f 16/1/1 1/2/1 32/3/1 17/4/1
f 15/5/2 16/1/2 17/4/2 18/6/2
f 14/7/3 15/5/3 18/6/3 19/8/3
f 13/9/4 14/7/4 19/8/4 20/10/4
f 12/11/5 13/9/5 20/10/5 21/12/5
f 12/11/6 21/12/6 22/13/6 11/14/6
f 10/15/7 11/14/7 22/13/7 23/16/7
f 10/15/8 23/16/8 24/17/8 9/18/8
f 8/19/9 9/18/9 24/17/9 25/20/9
f 8/19/10 25/20/10 26/21/10 7/22/10
f 6/23/11 7/22/11 26/21/11 27/24/11
f 6/23/12 27/24/12 28/25/12 5/26/12
f 4/27/13 5/26/13 28/25/13 29/28/13
f 4/27/14 29/28/14 30/29/14 3/30/14
f 2/31/15 3/30/15 30/29/15 31/32/15
f 32/33/16 1/34/16 2/31/16 31/32/16
f 31/32/17 34/35/17 33/36/17 32/33/17
f 31/32/18 30/29/18 35/37/18 34/35/18
f 29/28/19 36/38/19 35/37/19 30/29/19
f 29/28/20 28/25/20 37/39/20 36/38/20
f 27/24/21 38/40/21 37/39/21 28/25/21
f 27/24/22 26/21/22 39/41/22 38/40/22
f 25/20/23 40/42/23 39/41/23 26/21/23
f 25/20/24 24/17/24 41/43/24 40/42/24
f 23/16/25 42/44/25 41/43/25 24/17/25
f 23/16/26 22/13/26 43/45/26 42/44/26
f 21/12/27 44/46/27 43/45/27 22/13/27
f 21/12/28 20/10/28 45/47/28 44/46/28
f 20/10/29 19/8/29 46/48/29 45/47/29
f 19/8/30 18/6/30 47/49/30 46/48/30
f 18/6/31 17/4/31 48/50/31 47/49/31
f 17/4/32 32/3/32 33/51/32 48/50/32
f 48/52/33 33/53/33 64/54/33 49/55/33
f 47/56/33 48/52/33 49/55/33 50/57/33
f 46/58/33 47/56/33 50/57/33 51/59/33
f 45/60/33 46/58/33 51/59/33 52/61/33
f 44/62/33 45/60/33 52/61/33 53/63/33
f 44/62/33 53/63/33 54/64/33 43/65/33
f 42/66/33 43/65/33 54/64/33 55/67/33
f 42/66/33 55/67/33 56/68/33 41/69/33
f 40/70/33 41/69/33 56/68/33 57/71/33
f 40/70/33 57/71/33 58/72/33 39/73/33
f 38/74/33 39/73/33 58/72/33 59/75/33
f 38/74/33 59/75/33 60/76/33 37/77/33
f 36/78/33 37/77/33 60/76/33 61/79/33
f 36/78/33 61/79/33 62/80/33 35/81/33
f 34/82/33 35/81/33 62/80/33 63/83/33
f 34/82/33 63/83/33 64/54/33 33/53/33
f 63/84/17 66/85/17 65/86/17 64/87/17
f 63/84/18 62/88/18 67/89/18 66/85/18
f 61/90/34 68/91/34 67/89/34 62/88/34
f 61/90/35 60/92/35 69/93/35 68/91/35
f 59/94/21 70/95/21 69/93/21 60/92/21
f 59/94/22 58/96/22 71/97/22 70/95/22
f 57/98/23 72/99/23 71/97/23 58/96/23
f 57/98/36 56/100/36 73/101/36 72/99/36
f 55/102/25 74/103/25 73/101/25 56/100/25
f 55/102/37 54/104/37 75/105/37 74/103/37
f 53/106/38 76/107/38 75/105/38 54/104/38
f 53/106/28 52/108/28 77/109/28 76/107/28
f 52/108/29 51/110/29 78/111/29 77/109/29
f 51/110/30 50/112/30 79/113/30 78/111/30
f 50/112/31 49/114/31 80/115/31 79/113/31
f 49/114/32 64/116/32 65/117/32 80/115/32
f 80/118/39 65/119/39 96/120/39 81/121/39
f 79/122/40 80/118/40 81/121/40 82/123/40
f 78/124/41 79/122/41 82/123/41 83/125/41
f 77/126/42 78/124/42 83/125/42 84/127/42
f 76/128/43 77/126/43 84/127/43 85/129/43
f 76/128/44 85/129/44 86/130/44 75/131/44
f 74/132/45 75/131/45 86/130/45 87/133/45
f 74/132/46 87/133/46 88/134/46 73/135/46
f 72/136/47 73/135/47 88/134/47 89/137/47
f 72/136/48 89/137/48 90/138/48 71/139/48
f 70/140/49 71/139/49 90/138/49 91/141/49
f 70/140/50 91/141/50 92/142/50 69/143/50
f 68/144/51 69/143/51 92/142/51 93/145/51
f 68/144/52 93/145/52 94/146/52 67/147/52
f 66/148/53 67/147/53 94/146/53 95/149/53
f 66/148/54 95/149/54 96/150/54 65/151/54
f 81/121/55 96/120/55 97/152/55
f 95/149/56 97/152/56 96/150/56
f 94/146/57 97/152/57 95/149/57
f 93/145/58 97/152/58 94/146/58
f 87/133/59 97/152/59 88/134/59
f 86/130/60 97/152/60 87/133/60
f 85/129/61 97/152/61 86/130/61
f 84/127/62 97/152/62 85/129/62
f 83/125/63 97/152/63 84/127/63
f 82/123/64 97/152/64 83/125/64
f 81/121/65 97/152/65 82/123/65
f 92/142/66 97/152/66 93/145/66
f 91/141/67 97/152/67 92/142/67
f 90/138/68 97/152/68 91/141/68
f 89/137/69 97/152/69 90/138/69
f 88/134/70 97/152/70 89/137/70
